# Wavefront OBJ file automatically generated by Tiled2Unity

# Vertices (Count = 315)
v -32 -64 0
v -64 -64 0
v -64 -32 0
v -32 -32 0
v -96 -64 0
v -96 -32 0
v -128 -64 0
v -128 -32 0
v -160 -64 0
v -160 -32 0
v -192 -64 0
v -192 -32 0
v -224 -64 0
v -224 -32 0
v -256 -64 0
v -256 -32 0
v -288 -64 0
v -288 -32 0
v -320 -64 0
v -320 -32 0
v -352 -64 0
v -352 -32 0
v -384 -64 0
v -384 -32 0
v -416 -64 0
v -416 -32 0
v -448 -64 0
v -448 -32 0
v -480 -64 0
v -480 -32 0
v -512 -64 0
v -512 -32 0
v -544 -64 0
v -544 -32 0
v -576 -64 0
v -576 -32 0
v -608 -64 0
v -608 -32 0
v -640 -64 0
v -640 -32 0
v -672 -64 0
v -672 -32 0
v -32 -96 0
v -64 -96 0
v -96 -96 0
v -128 -96 0
v -160 -96 0
v -192 -96 0
v -224 -96 0
v -256 -96 0
v -288 -96 0
v -320 -96 0
v -352 -96 0
v -384 -96 0
v -416 -96 0
v -448 -96 0
v -480 -96 0
v -512 -96 0
v -544 -96 0
v -576 -96 0
v -608 -96 0
v -640 -96 0
v -672 -96 0
v -32 -128 0
v -64 -128 0
v -96 -128 0
v -128 -128 0
v -160 -128 0
v -192 -128 0
v -224 -128 0
v -256 -128 0
v -288 -128 0
v -320 -128 0
v -352 -128 0
v -384 -128 0
v -416 -128 0
v -448 -128 0
v -480 -128 0
v -512 -128 0
v -544 -128 0
v -576 -128 0
v -608 -128 0
v -640 -128 0
v -672 -128 0
v -32 -160 0
v -64 -160 0
v -96 -160 0
v -128 -160 0
v -160 -160 0
v -192 -160 0
v -224 -160 0
v -256 -160 0
v -288 -160 0
v -320 -160 0
v -352 -160 0
v -384 -160 0
v -416 -160 0
v -448 -160 0
v -480 -160 0
v -512 -160 0
v -544 -160 0
v -576 -160 0
v -608 -160 0
v -640 -160 0
v -672 -160 0
v -32 -192 0
v -64 -192 0
v -96 -192 0
v -128 -192 0
v -160 -192 0
v -192 -192 0
v -224 -192 0
v -256 -192 0
v -288 -192 0
v -320 -192 0
v -352 -192 0
v -384 -192 0
v -416 -192 0
v -448 -192 0
v -480 -192 0
v -512 -192 0
v -544 -192 0
v -576 -192 0
v -608 -192 0
v -640 -192 0
v -672 -192 0
v -32 -224 0
v -64 -224 0
v -96 -224 0
v -128 -224 0
v -160 -224 0
v -192 -224 0
v -224 -224 0
v -256 -224 0
v -288 -224 0
v -320 -224 0
v -352 -224 0
v -384 -224 0
v -416 -224 0
v -448 -224 0
v -480 -224 0
v -512 -224 0
v -544 -224 0
v -576 -224 0
v -608 -224 0
v -640 -224 0
v -672 -224 0
v -32 -256 0
v -64 -256 0
v -96 -256 0
v -128 -256 0
v -160 -256 0
v -192 -256 0
v -224 -256 0
v -256 -256 0
v -288 -256 0
v -320 -256 0
v -352 -256 0
v -384 -256 0
v -416 -256 0
v -448 -256 0
v -480 -256 0
v -512 -256 0
v -544 -256 0
v -576 -256 0
v -608 -256 0
v -640 -256 0
v -672 -256 0
v -32 -288 0
v -64 -288 0
v -96 -288 0
v -128 -288 0
v -160 -288 0
v -192 -288 0
v -224 -288 0
v -256 -288 0
v -288 -288 0
v -320 -288 0
v -352 -288 0
v -384 -288 0
v -416 -288 0
v -448 -288 0
v -480 -288 0
v -512 -288 0
v -544 -288 0
v -576 -288 0
v -608 -288 0
v -640 -288 0
v -672 -288 0
v -32 -320 0
v -64 -320 0
v -96 -320 0
v -128 -320 0
v -160 -320 0
v -192 -320 0
v -224 -320 0
v -256 -320 0
v -288 -320 0
v -320 -320 0
v -352 -320 0
v -384 -320 0
v -416 -320 0
v -448 -320 0
v -480 -320 0
v -512 -320 0
v -544 -320 0
v -576 -320 0
v -608 -320 0
v -640 -320 0
v -672 -320 0
v -32 -352 0
v -64 -352 0
v -96 -352 0
v -128 -352 0
v -160 -352 0
v -192 -352 0
v -224 -352 0
v -256 -352 0
v -288 -352 0
v -320 -352 0
v -352 -352 0
v -384 -352 0
v -416 -352 0
v -448 -352 0
v -480 -352 0
v -512 -352 0
v -544 -352 0
v -576 -352 0
v -608 -352 0
v -640 -352 0
v -672 -352 0
v -32 -384 0
v -64 -384 0
v -96 -384 0
v -128 -384 0
v -160 -384 0
v -192 -384 0
v -224 -384 0
v -256 -384 0
v -288 -384 0
v -320 -384 0
v -352 -384 0
v -384 -384 0
v -416 -384 0
v -448 -384 0
v -480 -384 0
v -512 -384 0
v -544 -384 0
v -576 -384 0
v -608 -384 0
v -640 -384 0
v -672 -384 0
v -32 -416 0
v -64 -416 0
v -96 -416 0
v -128 -416 0
v -160 -416 0
v -192 -416 0
v -224 -416 0
v -256 -416 0
v -288 -416 0
v -320 -416 0
v -352 -416 0
v -384 -416 0
v -416 -416 0
v -448 -416 0
v -480 -416 0
v -512 -416 0
v -544 -416 0
v -576 -416 0
v -608 -416 0
v -640 -416 0
v -672 -416 0
v -32 -448 0
v -64 -448 0
v -96 -448 0
v -128 -448 0
v -160 -448 0
v -192 -448 0
v -224 -448 0
v -256 -448 0
v -288 -448 0
v -320 -448 0
v -352 -448 0
v -384 -448 0
v -416 -448 0
v -448 -448 0
v -480 -448 0
v -512 -448 0
v -544 -448 0
v -576 -448 0
v -608 -448 0
v -640 -448 0
v -672 -448 0
v -32 -480 0
v -64 -480 0
v -96 -480 0
v -128 -480 0
v -160 -480 0
v -192 -480 0
v -224 -480 0
v -256 -480 0
v -288 -480 0
v -320 -480 0
v -352 -480 0
v -384 -480 0
v -416 -480 0
v -448 -480 0
v -480 -480 0
v -512 -480 0
v -544 -480 0
v -576 -480 0
v -608 -480 0
v -640 -480 0
v -672 -480 0

# Texture cooridinates (Count = 100)
vt 0.06262207 0.7501221
vt 0.1248779 0.7501221
vt 0.1248779 0.8748779
vt 0.06262207 0.8748779
vt 0.3126221 0.5001221
vt 0.3748779 0.5001221
vt 0.3748779 0.6248779
vt 0.3126221 0.6248779
vt 0.0001220703 0.5001221
vt 0.06237793 0.5001221
vt 0.06237793 0.6248779
vt 0.0001220703 0.6248779
vt 0.06262207 0.6251221
vt 0.1248779 0.6251221
vt 0.1248779 0.7498779
vt 0.06262207 0.7498779
vt 0.06262207 0.5001221
vt 0.1248779 0.5001221
vt 0.1248779 0.6248779
vt 0.06262207 0.6248779
vt 0.1251221 0.6251221
vt 0.1873779 0.6251221
vt 0.1873779 0.7498779
vt 0.1251221 0.7498779
vt 0.2501221 0.7501221
vt 0.3123779 0.7501221
vt 0.3123779 0.8748779
vt 0.2501221 0.8748779
vt 0.3126221 0.7501221
vt 0.3748779 0.7501221
vt 0.3748779 0.8748779
vt 0.3126221 0.8748779
vt 0.1876221 0.7501221
vt 0.2498779 0.7501221
vt 0.2498779 0.8748779
vt 0.1876221 0.8748779
vt 0.0001220703 0.6251221
vt 0.06237793 0.6251221
vt 0.06237793 0.7498779
vt 0.0001220703 0.7498779
vt 0.2501221 0.6251221
vt 0.3123779 0.6251221
vt 0.3123779 0.7498779
vt 0.2501221 0.7498779
vt 0.3126221 0.6251221
vt 0.3748779 0.6251221
vt 0.3748779 0.7498779
vt 0.3126221 0.7498779
vt 0.1876221 0.6251221
vt 0.2498779 0.6251221
vt 0.2498779 0.7498779
vt 0.1876221 0.7498779
vt 0.1251221 0.7501221
vt 0.1873779 0.7501221
vt 0.1873779 0.8748779
vt 0.1251221 0.8748779
vt 0.1876221 0.8751221
vt 0.2498779 0.8751221
vt 0.2498779 0.9998779
vt 0.1876221 0.9998779
vt 0.2501221 0.8751221
vt 0.3123779 0.8751221
vt 0.3123779 0.9998779
vt 0.2501221 0.9998779
vt 0.3126221 0.8751221
vt 0.3748779 0.8751221
vt 0.3748779 0.9998779
vt 0.3126221 0.9998779
vt 0.0001220703 0.8751221
vt 0.06237793 0.8751221
vt 0.06237793 0.9998779
vt 0.0001220703 0.9998779
vt 0.06262207 0.8751221
vt 0.1248779 0.8751221
vt 0.1248779 0.9998779
vt 0.06262207 0.9998779
vt 0.0001220703 0.7501221
vt 0.06237793 0.7501221
vt 0.06237793 0.8748779
vt 0.0001220703 0.8748779
vt 0.0001220703 0.3751221
vt 0.06237793 0.3751221
vt 0.06237793 0.4998779
vt 0.0001220703 0.4998779
vt 0.1251221 0.8751221
vt 0.1873779 0.8751221
vt 0.1873779 0.9998779
vt 0.1251221 0.9998779
vt 0.06262207 0.3751221
vt 0.1248779 0.3751221
vt 0.1248779 0.4998779
vt 0.06262207 0.4998779
vt 0.0001220703 0.2501221
vt 0.06237793 0.2501221
vt 0.06237793 0.3748779
vt 0.0001220703 0.3748779
vt 0.0001220703 0.1251221
vt 0.06237793 0.1251221
vt 0.06237793 0.2498779
vt 0.0001220703 0.2498779

# Normal
vn 0 0 -1

# Groups (Count = 2)

g mesh_0001
f 1/1/1 2/2/1 3/3/1 4/4/1
f 2/1/1 5/2/1 6/3/1 3/4/1
f 5/1/1 7/2/1 8/3/1 6/4/1
f 7/1/1 9/2/1 10/3/1 8/4/1
f 9/1/1 11/2/1 12/3/1 10/4/1
f 11/1/1 13/2/1 14/3/1 12/4/1
f 13/1/1 15/2/1 16/3/1 14/4/1
f 15/1/1 17/2/1 18/3/1 16/4/1
f 17/1/1 19/2/1 20/3/1 18/4/1
f 19/1/1 21/2/1 22/3/1 20/4/1
f 21/1/1 23/2/1 24/3/1 22/4/1
f 23/1/1 25/2/1 26/3/1 24/4/1
f 25/1/1 27/2/1 28/3/1 26/4/1
f 27/1/1 29/2/1 30/3/1 28/4/1
f 29/1/1 31/2/1 32/3/1 30/4/1
f 31/1/1 33/2/1 34/3/1 32/4/1
f 33/1/1 35/2/1 36/3/1 34/4/1
f 35/1/1 37/2/1 38/3/1 36/4/1
f 37/1/1 39/2/1 40/3/1 38/4/1
f 39/1/1 41/2/1 42/3/1 40/4/1
f 43/1/1 44/2/1 2/3/1 1/4/1
f 44/1/1 45/2/1 5/3/1 2/4/1
f 45/1/1 46/2/1 7/3/1 5/4/1
f 46/1/1 47/2/1 9/3/1 7/4/1
f 47/1/1 48/2/1 11/3/1 9/4/1
f 48/1/1 49/2/1 13/3/1 11/4/1
f 49/1/1 50/2/1 15/3/1 13/4/1
f 50/1/1 51/2/1 17/3/1 15/4/1
f 51/1/1 52/2/1 19/3/1 17/4/1
f 52/1/1 53/2/1 21/3/1 19/4/1
f 53/1/1 54/2/1 23/3/1 21/4/1
f 54/1/1 55/2/1 25/3/1 23/4/1
f 55/1/1 56/2/1 27/3/1 25/4/1
f 56/1/1 57/2/1 29/3/1 27/4/1
f 57/1/1 58/2/1 31/3/1 29/4/1
f 58/1/1 59/2/1 33/3/1 31/4/1
f 59/1/1 60/2/1 35/3/1 33/4/1
f 60/1/1 61/2/1 37/3/1 35/4/1
f 61/1/1 62/2/1 39/3/1 37/4/1
f 62/1/1 63/2/1 41/3/1 39/4/1
f 64/1/1 65/2/1 44/3/1 43/4/1
f 65/1/1 66/2/1 45/3/1 44/4/1
f 66/1/1 67/2/1 46/3/1 45/4/1
f 67/1/1 68/2/1 47/3/1 46/4/1
f 68/5/1 69/6/1 48/7/1 47/8/1
f 69/5/1 70/6/1 49/7/1 48/8/1
f 70/5/1 71/6/1 50/7/1 49/8/1
f 71/5/1 72/6/1 51/7/1 50/8/1
f 72/5/1 73/6/1 52/7/1 51/8/1
f 73/1/1 74/2/1 53/3/1 52/4/1
f 74/1/1 75/2/1 54/3/1 53/4/1
f 75/1/1 76/2/1 55/3/1 54/4/1
f 76/1/1 77/2/1 56/3/1 55/4/1
f 77/1/1 78/2/1 57/3/1 56/4/1
f 78/1/1 79/2/1 58/3/1 57/4/1
f 79/1/1 80/2/1 59/3/1 58/4/1
f 80/1/1 81/2/1 60/3/1 59/4/1
f 81/1/1 82/2/1 61/3/1 60/4/1
f 82/1/1 83/2/1 62/3/1 61/4/1
f 83/1/1 84/2/1 63/3/1 62/4/1
f 85/1/1 86/2/1 65/3/1 64/4/1
f 86/1/1 87/2/1 66/3/1 65/4/1
f 87/1/1 88/2/1 67/3/1 66/4/1
f 88/1/1 89/2/1 68/3/1 67/4/1
f 89/1/1 90/2/1 69/3/1 68/4/1
f 90/1/1 91/2/1 70/3/1 69/4/1
f 91/9/1 92/10/1 71/11/1 70/12/1
f 92/13/1 93/14/1 72/15/1 71/16/1
f 93/13/1 94/14/1 73/15/1 72/16/1
f 94/13/1 95/14/1 74/15/1 73/16/1
f 95/13/1 96/14/1 75/15/1 74/16/1
f 96/13/1 97/14/1 76/15/1 75/16/1
f 97/13/1 98/14/1 77/15/1 76/16/1
f 98/13/1 99/14/1 78/15/1 77/16/1
f 99/13/1 100/14/1 79/15/1 78/16/1
f 100/13/1 101/14/1 80/15/1 79/16/1
f 101/13/1 102/14/1 81/15/1 80/16/1
f 102/13/1 103/14/1 82/15/1 81/16/1
f 103/17/1 104/18/1 83/19/1 82/20/1
f 104/1/1 105/2/1 84/3/1 83/4/1
f 106/1/1 107/2/1 86/3/1 85/4/1
f 107/1/1 108/2/1 87/3/1 86/4/1
f 108/1/1 109/2/1 88/3/1 87/4/1
f 109/1/1 110/2/1 89/3/1 88/4/1
f 110/1/1 111/2/1 90/3/1 89/4/1
f 111/13/1 112/14/1 91/15/1 90/16/1
f 112/21/1 113/22/1 92/23/1 91/24/1
f 113/25/1 114/26/1 93/27/1 92/28/1
f 114/29/1 115/30/1 94/31/1 93/32/1
f 115/33/1 116/34/1 95/35/1 94/36/1
f 116/25/1 117/26/1 96/27/1 95/28/1
f 117/29/1 118/30/1 97/31/1 96/32/1
f 118/33/1 119/34/1 98/35/1 97/36/1
f 119/25/1 120/26/1 99/27/1 98/28/1
f 120/29/1 121/30/1 100/31/1 99/32/1
f 121/33/1 122/34/1 101/35/1 100/36/1
f 122/25/1 123/26/1 102/27/1 101/28/1
f 123/29/1 124/30/1 103/31/1 102/32/1
f 124/37/1 125/38/1 104/39/1 103/40/1
f 125/13/1 126/14/1 105/15/1 104/16/1
f 127/1/1 128/2/1 107/3/1 106/4/1
f 128/1/1 129/2/1 108/3/1 107/4/1
f 129/1/1 130/2/1 109/3/1 108/4/1
f 130/9/1 131/10/1 110/11/1 109/12/1
f 131/21/1 132/22/1 111/23/1 110/24/1
f 132/29/1 133/30/1 112/31/1 111/32/1
f 133/29/1 134/30/1 113/31/1 112/32/1
f 134/41/1 135/42/1 114/43/1 113/44/1
f 135/45/1 136/46/1 115/47/1 114/48/1
f 136/49/1 137/50/1 116/51/1 115/52/1
f 137/41/1 138/42/1 117/43/1 116/44/1
f 138/45/1 139/46/1 118/47/1 117/48/1
f 139/49/1 140/50/1 119/51/1 118/52/1
f 140/41/1 141/42/1 120/43/1 119/44/1
f 141/45/1 142/46/1 121/47/1 120/48/1
f 142/49/1 143/50/1 122/51/1 121/52/1
f 143/41/1 144/42/1 123/43/1 122/44/1
f 144/45/1 145/46/1 124/47/1 123/48/1
f 145/41/1 146/42/1 125/43/1 124/44/1
f 146/29/1 147/30/1 126/31/1 125/32/1
f 148/1/1 149/2/1 128/3/1 127/4/1
f 149/1/1 150/2/1 129/3/1 128/4/1
f 150/1/1 151/2/1 130/3/1 129/4/1
f 151/53/1 152/54/1 131/55/1 130/56/1
f 152/57/1 153/58/1 132/59/1 131/60/1
f 153/61/1 154/62/1 133/63/1 132/64/1
f 154/65/1 155/66/1 134/67/1 133/68/1
f 155/57/1 156/58/1 135/59/1 134/60/1
f 156/61/1 157/62/1 136/63/1 135/64/1
f 157/65/1 158/66/1 137/67/1 136/68/1
f 158/57/1 159/58/1 138/59/1 137/60/1
f 159/61/1 160/62/1 139/63/1 138/64/1
f 160/65/1 161/66/1 140/67/1 139/68/1
f 161/57/1 162/58/1 141/59/1 140/60/1
f 162/61/1 163/62/1 142/63/1 141/64/1
f 163/65/1 164/66/1 143/67/1 142/68/1
f 164/57/1 165/58/1 144/59/1 143/60/1
f 165/61/1 166/62/1 145/63/1 144/64/1
f 166/65/1 167/66/1 146/67/1 145/68/1
f 167/29/1 168/30/1 147/31/1 146/32/1
f 169/1/1 170/2/1 149/3/1 148/4/1
f 170/1/1 171/2/1 150/3/1 149/4/1
f 171/9/1 172/10/1 151/11/1 150/12/1
f 172/21/1 173/22/1 152/23/1 151/24/1
f 173/33/1 174/34/1 153/35/1 152/36/1
f 174/25/1 175/26/1 154/27/1 153/28/1
f 175/29/1 176/30/1 155/31/1 154/32/1
f 176/33/1 177/34/1 156/35/1 155/36/1
f 177/25/1 178/26/1 157/27/1 156/28/1
f 178/29/1 179/30/1 158/31/1 157/32/1
f 179/33/1 180/34/1 159/35/1 158/36/1
f 180/25/1 181/26/1 160/27/1 159/28/1
f 181/29/1 182/30/1 161/31/1 160/32/1
f 182/33/1 183/34/1 162/35/1 161/36/1
f 183/25/1 184/26/1 163/27/1 162/28/1
f 184/29/1 185/30/1 164/31/1 163/32/1
f 185/33/1 186/34/1 165/35/1 164/36/1
f 186/25/1 187/26/1 166/27/1 165/28/1
f 187/29/1 188/30/1 167/31/1 166/32/1
f 188/29/1 189/30/1 168/31/1 167/32/1
f 190/1/1 191/2/1 170/3/1 169/4/1
f 191/1/1 192/2/1 171/3/1 170/4/1
f 192/53/1 193/54/1 172/55/1 171/56/1
f 193/45/1 194/46/1 173/47/1 172/48/1
f 194/49/1 195/50/1 174/51/1 173/52/1
f 195/41/1 196/42/1 175/43/1 174/44/1
f 196/45/1 197/46/1 176/47/1 175/48/1
f 197/49/1 198/50/1 177/51/1 176/52/1
f 198/41/1 199/42/1 178/43/1 177/44/1
f 199/45/1 200/46/1 179/47/1 178/48/1
f 200/49/1 201/50/1 180/51/1 179/52/1
f 201/41/1 202/42/1 181/43/1 180/44/1
f 202/45/1 203/46/1 182/47/1 181/48/1
f 203/49/1 204/50/1 183/51/1 182/52/1
f 204/41/1 205/42/1 184/43/1 183/44/1
f 205/45/1 206/46/1 185/47/1 184/48/1
f 206/49/1 207/50/1 186/51/1 185/52/1
f 207/41/1 208/42/1 187/43/1 186/44/1
f 208/45/1 209/46/1 188/47/1 187/48/1
f 209/29/1 210/30/1 189/31/1 188/32/1
f 211/1/1 212/2/1 191/3/1 190/4/1
f 212/1/1 213/2/1 192/3/1 191/4/1
f 213/53/1 214/54/1 193/55/1 192/56/1
f 214/65/1 215/66/1 194/67/1 193/68/1
f 215/57/1 216/58/1 195/59/1 194/60/1
f 216/61/1 217/62/1 196/63/1 195/64/1
f 217/65/1 218/66/1 197/67/1 196/68/1
f 218/57/1 219/58/1 198/59/1 197/60/1
f 219/61/1 220/62/1 199/63/1 198/64/1
f 220/65/1 221/66/1 200/67/1 199/68/1
f 221/57/1 222/58/1 201/59/1 200/60/1
f 222/61/1 223/62/1 202/63/1 201/64/1
f 223/65/1 224/66/1 203/67/1 202/68/1
f 224/65/1 225/66/1 204/67/1 203/68/1
f 225/61/1 226/62/1 205/63/1 204/64/1
f 226/65/1 227/66/1 206/67/1 205/68/1
f 227/57/1 228/58/1 207/59/1 206/60/1
f 228/61/1 229/62/1 208/63/1 207/64/1
f 229/69/1 230/70/1 209/71/1 208/72/1
f 230/73/1 231/74/1 210/75/1 209/76/1
f 232/1/1 233/2/1 212/3/1 211/4/1
f 233/1/1 234/2/1 213/3/1 212/4/1
f 234/53/1 235/54/1 214/55/1 213/56/1
f 235/29/1 236/30/1 215/31/1 214/32/1
f 236/33/1 237/34/1 216/35/1 215/36/1
f 237/25/1 238/26/1 217/27/1 216/28/1
f 238/29/1 239/30/1 218/31/1 217/32/1
f 239/33/1 240/34/1 219/35/1 218/36/1
f 240/25/1 241/26/1 220/27/1 219/28/1
f 241/29/1 242/30/1 221/31/1 220/32/1
f 242/33/1 243/34/1 222/35/1 221/36/1
f 243/25/1 244/26/1 223/27/1 222/28/1
f 244/29/1 245/30/1 224/31/1 223/32/1
f 245/33/1 246/34/1 225/35/1 224/36/1
f 246/25/1 247/26/1 226/27/1 225/28/1
f 247/29/1 248/30/1 227/31/1 226/32/1
f 248/33/1 249/34/1 228/35/1 227/36/1
f 249/25/1 250/26/1 229/27/1 228/28/1
f 250/77/1 251/78/1 230/79/1 229/80/1
f 251/1/1 252/2/1 231/3/1 230/4/1
f 253/1/1 254/2/1 233/3/1 232/4/1
f 254/1/1 255/2/1 234/3/1 233/4/1
f 255/81/1 256/82/1 235/83/1 234/84/1
f 256/73/1 257/74/1 236/75/1 235/76/1
f 257/85/1 258/86/1 237/87/1 236/88/1
f 258/41/1 259/42/1 238/43/1 237/44/1
f 259/45/1 260/46/1 239/47/1 238/48/1
f 260/49/1 261/50/1 240/51/1 239/52/1
f 261/41/1 262/42/1 241/43/1 240/44/1
f 262/57/1 263/58/1 242/59/1 241/60/1
f 263/61/1 264/62/1 243/63/1 242/64/1
f 264/65/1 265/66/1 244/67/1 243/68/1
f 265/45/1 266/46/1 245/47/1 244/48/1
f 266/49/1 267/50/1 246/51/1 245/52/1
f 267/41/1 268/42/1 247/43/1 246/44/1
f 268/45/1 269/46/1 248/47/1 247/48/1
f 269/49/1 270/50/1 249/51/1 248/52/1
f 270/41/1 271/42/1 250/43/1 249/44/1
f 271/77/1 272/78/1 251/79/1 250/80/1
f 272/1/1 273/2/1 252/3/1 251/4/1
f 274/1/1 275/2/1 254/3/1 253/4/1
f 275/1/1 276/2/1 255/3/1 254/4/1
f 276/1/1 277/2/1 256/3/1 255/4/1
f 277/1/1 278/2/1 257/3/1 256/4/1
f 278/81/1 279/82/1 258/83/1 257/84/1
f 279/73/1 280/74/1 259/75/1 258/76/1
f 280/73/1 281/74/1 260/75/1 259/76/1
f 281/85/1 282/86/1 261/87/1 260/88/1
f 282/41/1 283/42/1 262/43/1 261/44/1
f 283/33/1 284/34/1 263/35/1 262/36/1
f 284/25/1 285/26/1 264/27/1 263/28/1
f 285/29/1 286/30/1 265/31/1 264/32/1
f 286/69/1 287/70/1 266/71/1 265/72/1
f 287/73/1 288/74/1 267/75/1 266/76/1
f 288/73/1 289/74/1 268/75/1 267/76/1
f 289/73/1 290/74/1 269/75/1 268/76/1
f 290/73/1 291/74/1 270/75/1 269/76/1
f 291/73/1 292/74/1 271/75/1 270/76/1
f 292/89/1 293/90/1 272/91/1 271/92/1
f 293/1/1 294/2/1 273/3/1 272/4/1
f 295/1/1 296/2/1 275/3/1 274/4/1
f 296/1/1 297/2/1 276/3/1 275/4/1
f 297/1/1 298/2/1 277/3/1 276/4/1
f 298/1/1 299/2/1 278/3/1 277/4/1
f 299/1/1 300/2/1 279/3/1 278/4/1
f 300/1/1 301/2/1 280/3/1 279/4/1
f 301/1/1 302/2/1 281/3/1 280/4/1
f 302/53/1 303/54/1 282/55/1 281/56/1
f 303/41/1 304/42/1 283/43/1 282/44/1
f 304/49/1 305/50/1 284/51/1 283/52/1
f 305/41/1 306/42/1 285/43/1 284/44/1
f 306/45/1 307/46/1 286/47/1 285/48/1
f 307/77/1 308/78/1 287/79/1 286/80/1
f 308/1/1 309/2/1 288/3/1 287/4/1
f 309/1/1 310/2/1 289/3/1 288/4/1
f 310/1/1 311/2/1 290/3/1 289/4/1
f 311/1/1 312/2/1 291/3/1 290/4/1
f 312/1/1 313/2/1 292/3/1 291/4/1
f 313/1/1 314/2/1 293/3/1 292/4/1
f 314/1/1 315/2/1 294/3/1 293/4/1

g mesh_0002
f 1/93/1 2/94/1 3/95/1 4/96/1
f 2/93/1 5/94/1 6/95/1 3/96/1
f 5/93/1 7/94/1 8/95/1 6/96/1
f 7/93/1 9/94/1 10/95/1 8/96/1
f 9/93/1 11/94/1 12/95/1 10/96/1
f 11/93/1 13/94/1 14/95/1 12/96/1
f 13/93/1 15/94/1 16/95/1 14/96/1
f 15/93/1 17/94/1 18/95/1 16/96/1
f 17/93/1 19/94/1 20/95/1 18/96/1
f 19/93/1 21/94/1 22/95/1 20/96/1
f 21/93/1 23/94/1 24/95/1 22/96/1
f 23/93/1 25/94/1 26/95/1 24/96/1
f 25/93/1 27/94/1 28/95/1 26/96/1
f 27/93/1 29/94/1 30/95/1 28/96/1
f 29/93/1 31/94/1 32/95/1 30/96/1
f 31/93/1 33/94/1 34/95/1 32/96/1
f 33/93/1 35/94/1 36/95/1 34/96/1
f 35/93/1 37/94/1 38/95/1 36/96/1
f 37/93/1 39/94/1 40/95/1 38/96/1
f 39/93/1 41/94/1 42/95/1 40/96/1
f 43/93/1 44/94/1 2/95/1 1/96/1
f 44/93/1 45/94/1 5/95/1 2/96/1
f 45/93/1 46/94/1 7/95/1 5/96/1
f 46/93/1 47/94/1 9/95/1 7/96/1
f 47/93/1 48/94/1 11/95/1 9/96/1
f 48/93/1 49/94/1 13/95/1 11/96/1
f 49/93/1 50/94/1 15/95/1 13/96/1
f 50/93/1 51/94/1 17/95/1 15/96/1
f 51/93/1 52/94/1 19/95/1 17/96/1
f 52/93/1 53/94/1 21/95/1 19/96/1
f 53/93/1 54/94/1 23/95/1 21/96/1
f 54/93/1 55/94/1 25/95/1 23/96/1
f 55/93/1 56/94/1 27/95/1 25/96/1
f 56/93/1 57/94/1 29/95/1 27/96/1
f 57/93/1 58/94/1 31/95/1 29/96/1
f 58/93/1 59/94/1 33/95/1 31/96/1
f 59/93/1 60/94/1 35/95/1 33/96/1
f 60/93/1 61/94/1 37/95/1 35/96/1
f 61/93/1 62/94/1 39/95/1 37/96/1
f 62/93/1 63/94/1 41/95/1 39/96/1
f 64/93/1 65/94/1 44/95/1 43/96/1
f 65/93/1 66/94/1 45/95/1 44/96/1
f 66/93/1 67/94/1 46/95/1 45/96/1
f 67/93/1 68/94/1 47/95/1 46/96/1
f 68/93/1 69/94/1 48/95/1 47/96/1
f 69/93/1 70/94/1 49/95/1 48/96/1
f 70/93/1 71/94/1 50/95/1 49/96/1
f 71/93/1 72/94/1 51/95/1 50/96/1
f 72/93/1 73/94/1 52/95/1 51/96/1
f 73/93/1 74/94/1 53/95/1 52/96/1
f 74/93/1 75/94/1 54/95/1 53/96/1
f 75/93/1 76/94/1 55/95/1 54/96/1
f 76/93/1 77/94/1 56/95/1 55/96/1
f 77/93/1 78/94/1 57/95/1 56/96/1
f 78/93/1 79/94/1 58/95/1 57/96/1
f 79/93/1 80/94/1 59/95/1 58/96/1
f 80/93/1 81/94/1 60/95/1 59/96/1
f 81/93/1 82/94/1 61/95/1 60/96/1
f 82/93/1 83/94/1 62/95/1 61/96/1
f 83/93/1 84/94/1 63/95/1 62/96/1
f 85/93/1 86/94/1 65/95/1 64/96/1
f 86/93/1 87/94/1 66/95/1 65/96/1
f 87/93/1 88/94/1 67/95/1 66/96/1
f 88/93/1 89/94/1 68/95/1 67/96/1
f 89/93/1 90/94/1 69/95/1 68/96/1
f 104/93/1 105/94/1 84/95/1 83/96/1
f 106/93/1 107/94/1 86/95/1 85/96/1
f 107/93/1 108/94/1 87/95/1 86/96/1
f 108/93/1 109/94/1 88/95/1 87/96/1
f 127/93/1 128/94/1 107/95/1 106/96/1
f 128/93/1 129/94/1 108/95/1 107/96/1
f 129/93/1 130/94/1 109/95/1 108/96/1
f 148/93/1 149/94/1 128/95/1 127/96/1
f 149/93/1 150/94/1 129/95/1 128/96/1
f 169/93/1 170/94/1 149/95/1 148/96/1
f 170/93/1 171/94/1 150/95/1 149/96/1
f 190/93/1 191/94/1 170/95/1 169/96/1
f 191/93/1 192/94/1 171/95/1 170/96/1
f 198/97/1 199/98/1 178/99/1 177/100/1
f 201/97/1 202/98/1 181/99/1 180/100/1
f 211/93/1 212/94/1 191/95/1 190/96/1
f 212/93/1 213/94/1 192/95/1 191/96/1
f 232/93/1 233/94/1 212/95/1 211/96/1
f 233/93/1 234/94/1 213/95/1 212/96/1
f 251/93/1 252/94/1 231/95/1 230/96/1
f 253/93/1 254/94/1 233/95/1 232/96/1
f 254/93/1 255/94/1 234/95/1 233/96/1
f 272/93/1 273/94/1 252/95/1 251/96/1
f 274/93/1 275/94/1 254/95/1 253/96/1
f 275/93/1 276/94/1 255/95/1 254/96/1
f 276/93/1 277/94/1 256/95/1 255/96/1
f 293/93/1 294/94/1 273/95/1 272/96/1
f 295/93/1 296/94/1 275/95/1 274/96/1
f 296/93/1 297/94/1 276/95/1 275/96/1
f 297/93/1 298/94/1 277/95/1 276/96/1
f 298/93/1 299/94/1 278/95/1 277/96/1
f 299/93/1 300/94/1 279/95/1 278/96/1
f 300/93/1 301/94/1 280/95/1 279/96/1
f 301/93/1 302/94/1 281/95/1 280/96/1
f 308/93/1 309/94/1 288/95/1 287/96/1
f 309/93/1 310/94/1 289/95/1 288/96/1
f 310/93/1 311/94/1 290/95/1 289/96/1
f 311/93/1 312/94/1 291/95/1 290/96/1
f 312/93/1 313/94/1 292/95/1 291/96/1
f 313/93/1 314/94/1 293/95/1 292/96/1
f 314/93/1 315/94/1 294/95/1 293/96/1

