# Wavefront OBJ file automatically generated by Tiled2Unity

# Vertices (Count = 315)
v -32 -64 0
v -64 -64 0
v -64 -32 0
v -32 -32 0
v -96 -64 0
v -96 -32 0
v -128 -64 0
v -128 -32 0
v -160 -64 0
v -160 -32 0
v -192 -64 0
v -192 -32 0
v -224 -64 0
v -224 -32 0
v -256 -64 0
v -256 -32 0
v -288 -64 0
v -288 -32 0
v -320 -64 0
v -320 -32 0
v -352 -64 0
v -352 -32 0
v -384 -64 0
v -384 -32 0
v -416 -64 0
v -416 -32 0
v -448 -64 0
v -448 -32 0
v -480 -64 0
v -480 -32 0
v -512 -64 0
v -512 -32 0
v -544 -64 0
v -544 -32 0
v -576 -64 0
v -576 -32 0
v -608 -64 0
v -608 -32 0
v -640 -64 0
v -640 -32 0
v -672 -64 0
v -672 -32 0
v -32 -96 0
v -64 -96 0
v -96 -96 0
v -128 -96 0
v -160 -96 0
v -192 -96 0
v -224 -96 0
v -256 -96 0
v -288 -96 0
v -320 -96 0
v -352 -96 0
v -384 -96 0
v -416 -96 0
v -448 -96 0
v -480 -96 0
v -512 -96 0
v -544 -96 0
v -576 -96 0
v -608 -96 0
v -640 -96 0
v -672 -96 0
v -32 -128 0
v -64 -128 0
v -96 -128 0
v -128 -128 0
v -160 -128 0
v -192 -128 0
v -224 -128 0
v -256 -128 0
v -288 -128 0
v -320 -128 0
v -352 -128 0
v -384 -128 0
v -416 -128 0
v -448 -128 0
v -480 -128 0
v -512 -128 0
v -544 -128 0
v -576 -128 0
v -608 -128 0
v -640 -128 0
v -672 -128 0
v -32 -160 0
v -64 -160 0
v -96 -160 0
v -128 -160 0
v -160 -160 0
v -192 -160 0
v -224 -160 0
v -256 -160 0
v -288 -160 0
v -320 -160 0
v -352 -160 0
v -384 -160 0
v -416 -160 0
v -448 -160 0
v -480 -160 0
v -512 -160 0
v -544 -160 0
v -576 -160 0
v -608 -160 0
v -640 -160 0
v -672 -160 0
v -32 -192 0
v -64 -192 0
v -96 -192 0
v -128 -192 0
v -160 -192 0
v -192 -192 0
v -224 -192 0
v -256 -192 0
v -288 -192 0
v -320 -192 0
v -352 -192 0
v -384 -192 0
v -416 -192 0
v -448 -192 0
v -480 -192 0
v -512 -192 0
v -544 -192 0
v -576 -192 0
v -608 -192 0
v -640 -192 0
v -672 -192 0
v -32 -224 0
v -64 -224 0
v -96 -224 0
v -128 -224 0
v -160 -224 0
v -192 -224 0
v -224 -224 0
v -256 -224 0
v -288 -224 0
v -320 -224 0
v -352 -224 0
v -384 -224 0
v -416 -224 0
v -448 -224 0
v -480 -224 0
v -512 -224 0
v -544 -224 0
v -576 -224 0
v -608 -224 0
v -640 -224 0
v -672 -224 0
v -32 -256 0
v -64 -256 0
v -96 -256 0
v -128 -256 0
v -160 -256 0
v -192 -256 0
v -224 -256 0
v -256 -256 0
v -288 -256 0
v -320 -256 0
v -352 -256 0
v -384 -256 0
v -416 -256 0
v -448 -256 0
v -480 -256 0
v -512 -256 0
v -544 -256 0
v -576 -256 0
v -608 -256 0
v -640 -256 0
v -672 -256 0
v -32 -288 0
v -64 -288 0
v -96 -288 0
v -128 -288 0
v -160 -288 0
v -192 -288 0
v -224 -288 0
v -256 -288 0
v -288 -288 0
v -320 -288 0
v -352 -288 0
v -384 -288 0
v -416 -288 0
v -448 -288 0
v -480 -288 0
v -512 -288 0
v -544 -288 0
v -576 -288 0
v -608 -288 0
v -640 -288 0
v -672 -288 0
v -32 -320 0
v -64 -320 0
v -96 -320 0
v -128 -320 0
v -160 -320 0
v -192 -320 0
v -224 -320 0
v -256 -320 0
v -288 -320 0
v -320 -320 0
v -352 -320 0
v -384 -320 0
v -416 -320 0
v -448 -320 0
v -480 -320 0
v -512 -320 0
v -544 -320 0
v -576 -320 0
v -608 -320 0
v -640 -320 0
v -672 -320 0
v -32 -352 0
v -64 -352 0
v -96 -352 0
v -128 -352 0
v -160 -352 0
v -192 -352 0
v -224 -352 0
v -256 -352 0
v -288 -352 0
v -320 -352 0
v -352 -352 0
v -384 -352 0
v -416 -352 0
v -448 -352 0
v -480 -352 0
v -512 -352 0
v -544 -352 0
v -576 -352 0
v -608 -352 0
v -640 -352 0
v -672 -352 0
v -32 -384 0
v -64 -384 0
v -96 -384 0
v -128 -384 0
v -160 -384 0
v -192 -384 0
v -224 -384 0
v -256 -384 0
v -288 -384 0
v -320 -384 0
v -352 -384 0
v -384 -384 0
v -416 -384 0
v -448 -384 0
v -480 -384 0
v -512 -384 0
v -544 -384 0
v -576 -384 0
v -608 -384 0
v -640 -384 0
v -672 -384 0
v -32 -416 0
v -64 -416 0
v -96 -416 0
v -128 -416 0
v -160 -416 0
v -192 -416 0
v -224 -416 0
v -256 -416 0
v -288 -416 0
v -320 -416 0
v -352 -416 0
v -384 -416 0
v -416 -416 0
v -448 -416 0
v -480 -416 0
v -512 -416 0
v -544 -416 0
v -576 -416 0
v -608 -416 0
v -640 -416 0
v -672 -416 0
v -32 -448 0
v -64 -448 0
v -96 -448 0
v -128 -448 0
v -160 -448 0
v -192 -448 0
v -224 -448 0
v -256 -448 0
v -288 -448 0
v -320 -448 0
v -352 -448 0
v -384 -448 0
v -416 -448 0
v -448 -448 0
v -480 -448 0
v -512 -448 0
v -544 -448 0
v -576 -448 0
v -608 -448 0
v -640 -448 0
v -672 -448 0
v -32 -480 0
v -64 -480 0
v -96 -480 0
v -128 -480 0
v -160 -480 0
v -192 -480 0
v -224 -480 0
v -256 -480 0
v -288 -480 0
v -320 -480 0
v -352 -480 0
v -384 -480 0
v -416 -480 0
v -448 -480 0
v -480 -480 0
v -512 -480 0
v -544 -480 0
v -576 -480 0
v -608 -480 0
v -640 -480 0
v -672 -480 0

# Texture cooridinates (Count = 124)
vt 0.06262207 0.7501221
vt 0.1248779 0.7501221
vt 0.1248779 0.8748779
vt 0.06262207 0.8748779
vt 0.1251221 0.7501221
vt 0.1873779 0.7501221
vt 0.1873779 0.8748779
vt 0.1251221 0.8748779
vt 0.3126221 0.8751221
vt 0.3748779 0.8751221
vt 0.3748779 0.9998779
vt 0.3126221 0.9998779
vt 0.1876221 0.8751221
vt 0.2498779 0.8751221
vt 0.2498779 0.9998779
vt 0.1876221 0.9998779
vt 0.2501221 0.8751221
vt 0.3123779 0.8751221
vt 0.3123779 0.9998779
vt 0.2501221 0.9998779
vt 0.0001220703 0.7501221
vt 0.06237793 0.7501221
vt 0.06237793 0.8748779
vt 0.0001220703 0.8748779
vt 0.0001220703 0.5001221
vt 0.06237793 0.5001221
vt 0.06237793 0.6248779
vt 0.0001220703 0.6248779
vt 0.06262207 0.6251221
vt 0.1248779 0.6251221
vt 0.1248779 0.7498779
vt 0.06262207 0.7498779
vt 0.1251221 0.6251221
vt 0.1873779 0.6251221
vt 0.1873779 0.7498779
vt 0.1251221 0.7498779
vt 0.3126221 0.7501221
vt 0.3748779 0.7501221
vt 0.3748779 0.8748779
vt 0.3126221 0.8748779
vt 0.1876221 0.7501221
vt 0.2498779 0.7501221
vt 0.2498779 0.8748779
vt 0.1876221 0.8748779
vt 0.2501221 0.7501221
vt 0.3123779 0.7501221
vt 0.3123779 0.8748779
vt 0.2501221 0.8748779
vt 0.0001220703 0.6251221
vt 0.06237793 0.6251221
vt 0.06237793 0.7498779
vt 0.0001220703 0.7498779
vt 0.06262207 0.5001221
vt 0.1248779 0.5001221
vt 0.1248779 0.6248779
vt 0.06262207 0.6248779
vt 0.1876221 0.6251221
vt 0.2498779 0.6251221
vt 0.2498779 0.7498779
vt 0.1876221 0.7498779
vt 0.2501221 0.6251221
vt 0.3123779 0.6251221
vt 0.3123779 0.7498779
vt 0.2501221 0.7498779
vt 0.3126221 0.6251221
vt 0.3748779 0.6251221
vt 0.3748779 0.7498779
vt 0.3126221 0.7498779
vt 0.3126221 0.3751221
vt 0.3748779 0.3751221
vt 0.3748779 0.4998779
vt 0.3126221 0.4998779
vt 0.0001220703 0.3751221
vt 0.06237793 0.3751221
vt 0.06237793 0.4998779
vt 0.0001220703 0.4998779
vt 0.1251221 0.8751221
vt 0.1873779 0.8751221
vt 0.1873779 0.9998779
vt 0.1251221 0.9998779
vt 0.0001220703 0.8751221
vt 0.06237793 0.8751221
vt 0.06237793 0.9998779
vt 0.0001220703 0.9998779
vt 0.06262207 0.8751221
vt 0.1248779 0.8751221
vt 0.1248779 0.9998779
vt 0.06262207 0.9998779
vt 0.06262207 0.3751221
vt 0.1248779 0.3751221
vt 0.1248779 0.4998779
vt 0.06262207 0.4998779
vt 0.0001220703 0.2501221
vt 0.06237793 0.2501221
vt 0.06237793 0.3748779
vt 0.0001220703 0.3748779
vt 0.06262207 0.2501221
vt 0.1248779 0.2501221
vt 0.1248779 0.3748779
vt 0.06262207 0.3748779
vt 0.7501221 0.5001221
vt 0.8123779 0.5001221
vt 0.8123779 0.6248779
vt 0.7501221 0.6248779
vt 0.8126221 0.5001221
vt 0.8748779 0.5001221
vt 0.8748779 0.6248779
vt 0.8126221 0.6248779
vt 0.8751221 0.5001221
vt 0.9373779 0.5001221
vt 0.9373779 0.6248779
vt 0.8751221 0.6248779
vt 0.5626221 0.5001221
vt 0.6248779 0.5001221
vt 0.6248779 0.6248779
vt 0.5626221 0.6248779
vt 0.6251221 0.5001221
vt 0.6873779 0.5001221
vt 0.6873779 0.6248779
vt 0.6251221 0.6248779
vt 0.6876221 0.5001221
vt 0.7498779 0.5001221
vt 0.7498779 0.6248779
vt 0.6876221 0.6248779

# Normal
vn 0 0 -1

# Groups (Count = 2)

g mesh_0001
f 1/1/1 2/2/1 3/3/1 4/4/1
f 2/1/1 5/2/1 6/3/1 3/4/1
f 5/1/1 7/2/1 8/3/1 6/4/1
f 7/1/1 9/2/1 10/3/1 8/4/1
f 9/1/1 11/2/1 12/3/1 10/4/1
f 11/1/1 13/2/1 14/3/1 12/4/1
f 13/1/1 15/2/1 16/3/1 14/4/1
f 15/5/1 17/6/1 18/7/1 16/8/1
f 17/9/1 19/10/1 20/11/1 18/12/1
f 19/13/1 21/14/1 22/15/1 20/16/1
f 21/17/1 23/18/1 24/19/1 22/20/1
f 23/9/1 25/10/1 26/11/1 24/12/1
f 25/21/1 27/22/1 28/23/1 26/24/1
f 27/1/1 29/2/1 30/3/1 28/4/1
f 29/1/1 31/2/1 32/3/1 30/4/1
f 31/1/1 33/2/1 34/3/1 32/4/1
f 33/1/1 35/2/1 36/3/1 34/4/1
f 35/1/1 37/2/1 38/3/1 36/4/1
f 37/1/1 39/2/1 40/3/1 38/4/1
f 39/1/1 41/2/1 42/3/1 40/4/1
f 43/1/1 44/2/1 2/3/1 1/4/1
f 44/1/1 45/2/1 5/3/1 2/4/1
f 45/1/1 46/2/1 7/3/1 5/4/1
f 46/1/1 47/2/1 9/3/1 7/4/1
f 47/1/1 48/2/1 11/3/1 9/4/1
f 48/25/1 49/26/1 13/27/1 11/28/1
f 49/29/1 50/30/1 15/31/1 13/32/1
f 50/33/1 51/34/1 17/35/1 15/36/1
f 51/37/1 52/38/1 19/39/1 17/40/1
f 52/41/1 53/42/1 21/43/1 19/44/1
f 53/45/1 54/46/1 23/47/1 21/48/1
f 54/37/1 55/38/1 25/39/1 23/40/1
f 55/49/1 56/50/1 27/51/1 25/52/1
f 56/29/1 57/30/1 29/31/1 27/32/1
f 57/29/1 58/30/1 31/31/1 29/32/1
f 58/53/1 59/54/1 33/55/1 31/56/1
f 59/1/1 60/2/1 35/3/1 33/4/1
f 60/1/1 61/2/1 37/3/1 35/4/1
f 61/1/1 62/2/1 39/3/1 37/4/1
f 62/1/1 63/2/1 41/3/1 39/4/1
f 64/1/1 65/2/1 44/3/1 43/4/1
f 65/1/1 66/2/1 45/3/1 44/4/1
f 66/1/1 67/2/1 46/3/1 45/4/1
f 67/1/1 68/2/1 47/3/1 46/4/1
f 68/1/1 69/2/1 48/3/1 47/4/1
f 69/5/1 70/6/1 49/7/1 48/8/1
f 70/57/1 71/58/1 50/59/1 49/60/1
f 71/61/1 72/62/1 51/63/1 50/64/1
f 72/65/1 73/66/1 52/67/1 51/68/1
f 73/57/1 74/58/1 53/59/1 52/60/1
f 74/61/1 75/62/1 54/63/1 53/64/1
f 75/65/1 76/66/1 55/67/1 54/68/1
f 76/57/1 77/58/1 56/59/1 55/60/1
f 77/61/1 78/62/1 57/63/1 56/64/1
f 78/65/1 79/66/1 58/67/1 57/68/1
f 79/49/1 80/50/1 59/51/1 58/52/1
f 80/29/1 81/30/1 60/31/1 59/32/1
f 81/29/1 82/30/1 61/31/1 60/32/1
f 82/53/1 83/54/1 62/55/1 61/56/1
f 83/1/1 84/2/1 63/3/1 62/4/1
f 85/1/1 86/2/1 65/3/1 64/4/1
f 86/1/1 87/2/1 66/3/1 65/4/1
f 87/1/1 88/2/1 67/3/1 66/4/1
f 88/1/1 89/2/1 68/3/1 67/4/1
f 89/1/1 90/2/1 69/3/1 68/4/1
f 90/5/1 91/6/1 70/7/1 69/8/1
f 91/13/1 92/14/1 71/15/1 70/16/1
f 92/17/1 93/18/1 72/19/1 71/20/1
f 93/9/1 94/10/1 73/11/1 72/12/1
f 94/13/1 95/14/1 74/15/1 73/16/1
f 95/17/1 96/18/1 75/19/1 74/20/1
f 96/9/1 97/10/1 76/11/1 75/12/1
f 97/13/1 98/14/1 77/15/1 76/16/1
f 98/17/1 99/18/1 78/19/1 77/20/1
f 99/9/1 100/10/1 79/11/1 78/12/1
f 100/13/1 101/14/1 80/15/1 79/16/1
f 101/17/1 102/18/1 81/19/1 80/20/1
f 102/9/1 103/10/1 82/11/1 81/12/1
f 103/21/1 104/22/1 83/23/1 82/24/1
f 104/1/1 105/2/1 84/3/1 83/4/1
f 106/1/1 107/2/1 86/3/1 85/4/1
f 107/1/1 108/2/1 87/3/1 86/4/1
f 108/1/1 109/2/1 88/3/1 87/4/1
f 109/25/1 110/26/1 89/27/1 88/28/1
f 110/29/1 111/30/1 90/31/1 89/32/1
f 111/33/1 112/34/1 91/35/1 90/36/1
f 112/41/1 113/42/1 92/43/1 91/44/1
f 113/45/1 114/46/1 93/47/1 92/48/1
f 114/37/1 115/38/1 94/39/1 93/40/1
f 115/41/1 116/42/1 95/43/1 94/44/1
f 116/45/1 117/46/1 96/47/1 95/48/1
f 117/37/1 118/38/1 97/39/1 96/40/1
f 118/41/1 119/42/1 98/43/1 97/44/1
f 119/45/1 120/46/1 99/47/1 98/48/1
f 120/37/1 121/38/1 100/39/1 99/40/1
f 121/41/1 122/42/1 101/43/1 100/44/1
f 122/45/1 123/46/1 102/47/1 101/48/1
f 123/37/1 124/38/1 103/39/1 102/40/1
f 124/49/1 125/50/1 104/51/1 103/52/1
f 125/29/1 126/30/1 105/31/1 104/32/1
f 127/1/1 128/2/1 107/3/1 106/4/1
f 128/1/1 129/2/1 108/3/1 107/4/1
f 129/69/1 130/70/1 109/71/1 108/72/1
f 130/5/1 131/6/1 110/7/1 109/8/1
f 131/37/1 132/38/1 111/39/1 110/40/1
f 132/37/1 133/38/1 112/39/1 111/40/1
f 133/37/1 134/38/1 113/39/1 112/40/1
f 134/61/1 135/62/1 114/63/1 113/64/1
f 135/65/1 136/66/1 115/67/1 114/68/1
f 136/57/1 137/58/1 116/59/1 115/60/1
f 137/61/1 138/62/1 117/63/1 116/64/1
f 138/65/1 139/66/1 118/67/1 117/68/1
f 139/57/1 140/58/1 119/59/1 118/60/1
f 140/61/1 141/62/1 120/63/1 119/64/1
f 141/65/1 142/66/1 121/67/1 120/68/1
f 142/57/1 143/58/1 122/59/1 121/60/1
f 143/61/1 144/62/1 123/63/1 122/64/1
f 144/65/1 145/66/1 124/67/1 123/68/1
f 145/61/1 146/62/1 125/63/1 124/64/1
f 146/37/1 147/38/1 126/39/1 125/40/1
f 148/1/1 149/2/1 128/3/1 127/4/1
f 149/1/1 150/2/1 129/3/1 128/4/1
f 150/1/1 151/2/1 130/3/1 129/4/1
f 151/5/1 152/6/1 131/7/1 130/8/1
f 152/13/1 153/14/1 132/15/1 131/16/1
f 153/17/1 154/18/1 133/19/1 132/20/1
f 154/9/1 155/10/1 134/11/1 133/12/1
f 155/13/1 156/14/1 135/15/1 134/16/1
f 156/17/1 157/18/1 136/19/1 135/20/1
f 157/9/1 158/10/1 137/11/1 136/12/1
f 158/13/1 159/14/1 138/15/1 137/16/1
f 159/17/1 160/18/1 139/19/1 138/20/1
f 160/9/1 161/10/1 140/11/1 139/12/1
f 161/13/1 162/14/1 141/15/1 140/16/1
f 162/17/1 163/18/1 142/19/1 141/20/1
f 163/9/1 164/10/1 143/11/1 142/12/1
f 164/13/1 165/14/1 144/15/1 143/16/1
f 165/17/1 166/18/1 145/19/1 144/20/1
f 166/9/1 167/10/1 146/11/1 145/12/1
f 167/37/1 168/38/1 147/39/1 146/40/1
f 169/1/1 170/2/1 149/3/1 148/4/1
f 170/1/1 171/2/1 150/3/1 149/4/1
f 171/1/1 172/2/1 151/3/1 150/4/1
f 172/5/1 173/6/1 152/7/1 151/8/1
f 173/41/1 174/42/1 153/43/1 152/44/1
f 174/45/1 175/46/1 154/47/1 153/48/1
f 175/37/1 176/38/1 155/39/1 154/40/1
f 176/41/1 177/42/1 156/43/1 155/44/1
f 177/45/1 178/46/1 157/47/1 156/48/1
f 178/37/1 179/38/1 158/39/1 157/40/1
f 179/41/1 180/42/1 159/43/1 158/44/1
f 180/45/1 181/46/1 160/47/1 159/48/1
f 181/37/1 182/38/1 161/39/1 160/40/1
f 182/41/1 183/42/1 162/43/1 161/44/1
f 183/45/1 184/46/1 163/47/1 162/48/1
f 184/37/1 185/38/1 164/39/1 163/40/1
f 185/41/1 186/42/1 165/43/1 164/44/1
f 186/45/1 187/46/1 166/47/1 165/48/1
f 187/37/1 188/38/1 167/39/1 166/40/1
f 188/37/1 189/38/1 168/39/1 167/40/1
f 190/1/1 191/2/1 170/3/1 169/4/1
f 191/1/1 192/2/1 171/3/1 170/4/1
f 192/1/1 193/2/1 172/3/1 171/4/1
f 193/73/1 194/74/1 173/75/1 172/76/1
f 194/77/1 195/78/1 174/79/1 173/80/1
f 195/61/1 196/62/1 175/63/1 174/64/1
f 196/65/1 197/66/1 176/67/1 175/68/1
f 197/57/1 198/58/1 177/59/1 176/60/1
f 198/61/1 199/62/1 178/63/1 177/64/1
f 199/65/1 200/66/1 179/67/1 178/68/1
f 200/57/1 201/58/1 180/59/1 179/60/1
f 201/61/1 202/62/1 181/63/1 180/64/1
f 202/65/1 203/66/1 182/67/1 181/68/1
f 203/57/1 204/58/1 183/59/1 182/60/1
f 204/61/1 205/62/1 184/63/1 183/64/1
f 205/65/1 206/66/1 185/67/1 184/68/1
f 206/57/1 207/58/1 186/59/1 185/60/1
f 207/61/1 208/62/1 187/63/1 186/64/1
f 208/65/1 209/66/1 188/67/1 187/68/1
f 209/37/1 210/38/1 189/39/1 188/40/1
f 211/1/1 212/2/1 191/3/1 190/4/1
f 212/1/1 213/2/1 192/3/1 191/4/1
f 213/1/1 214/2/1 193/3/1 192/4/1
f 214/1/1 215/2/1 194/3/1 193/4/1
f 215/73/1 216/74/1 195/75/1 194/76/1
f 216/77/1 217/78/1 196/79/1 195/80/1
f 217/9/1 218/10/1 197/11/1 196/12/1
f 218/13/1 219/14/1 198/15/1 197/16/1
f 219/17/1 220/18/1 199/19/1 198/20/1
f 220/9/1 221/10/1 200/11/1 199/12/1
f 221/13/1 222/14/1 201/15/1 200/16/1
f 222/17/1 223/18/1 202/19/1 201/20/1
f 223/9/1 224/10/1 203/11/1 202/12/1
f 224/9/1 225/10/1 204/11/1 203/12/1
f 225/17/1 226/18/1 205/19/1 204/20/1
f 226/9/1 227/10/1 206/11/1 205/12/1
f 227/13/1 228/14/1 207/15/1 206/16/1
f 228/17/1 229/18/1 208/19/1 207/20/1
f 229/81/1 230/82/1 209/83/1 208/84/1
f 230/85/1 231/86/1 210/87/1 209/88/1
f 232/1/1 233/2/1 212/3/1 211/4/1
f 233/1/1 234/2/1 213/3/1 212/4/1
f 234/1/1 235/2/1 214/3/1 213/4/1
f 235/1/1 236/2/1 215/3/1 214/4/1
f 236/1/1 237/2/1 216/3/1 215/4/1
f 237/73/1 238/74/1 217/75/1 216/76/1
f 238/85/1 239/86/1 218/87/1 217/88/1
f 239/85/1 240/86/1 219/87/1 218/88/1
f 240/77/1 241/78/1 220/79/1 219/80/1
f 241/45/1 242/46/1 221/47/1 220/48/1
f 242/41/1 243/42/1 222/43/1 221/44/1
f 243/45/1 244/46/1 223/47/1 222/48/1
f 244/37/1 245/38/1 224/39/1 223/40/1
f 245/41/1 246/42/1 225/43/1 224/44/1
f 246/45/1 247/46/1 226/47/1 225/48/1
f 247/37/1 248/38/1 227/39/1 226/40/1
f 248/41/1 249/42/1 228/43/1 227/44/1
f 249/45/1 250/46/1 229/47/1 228/48/1
f 250/21/1 251/22/1 230/23/1 229/24/1
f 251/1/1 252/2/1 231/3/1 230/4/1
f 253/1/1 254/2/1 233/3/1 232/4/1
f 254/1/1 255/2/1 234/3/1 233/4/1
f 255/1/1 256/2/1 235/3/1 234/4/1
f 256/1/1 257/2/1 236/3/1 235/4/1
f 257/1/1 258/2/1 237/3/1 236/4/1
f 258/1/1 259/2/1 238/3/1 237/4/1
f 259/1/1 260/2/1 239/3/1 238/4/1
f 260/1/1 261/2/1 240/3/1 239/4/1
f 261/5/1 262/6/1 241/7/1 240/8/1
f 262/45/1 263/46/1 242/47/1 241/48/1
f 263/45/1 264/46/1 243/47/1 242/48/1
f 264/9/1 265/10/1 244/11/1 243/12/1
f 265/65/1 266/66/1 245/67/1 244/68/1
f 266/57/1 267/58/1 246/59/1 245/60/1
f 267/61/1 268/62/1 247/63/1 246/64/1
f 268/65/1 269/66/1 248/67/1 247/68/1
f 269/57/1 270/58/1 249/59/1 248/60/1
f 270/61/1 271/62/1 250/63/1 249/64/1
f 271/21/1 272/22/1 251/23/1 250/24/1
f 272/1/1 273/2/1 252/3/1 251/4/1
f 274/1/1 275/2/1 254/3/1 253/4/1
f 275/1/1 276/2/1 255/3/1 254/4/1
f 276/1/1 277/2/1 256/3/1 255/4/1
f 277/1/1 278/2/1 257/3/1 256/4/1
f 278/1/1 279/2/1 258/3/1 257/4/1
f 279/1/1 280/2/1 259/3/1 258/4/1
f 280/1/1 281/2/1 260/3/1 259/4/1
f 281/1/1 282/2/1 261/3/1 260/4/1
f 282/73/1 283/74/1 262/75/1 261/76/1
f 283/85/1 284/86/1 263/87/1 262/88/1
f 284/85/1 285/86/1 264/87/1 263/88/1
f 285/85/1 286/86/1 265/87/1 264/88/1
f 286/85/1 287/86/1 266/87/1 265/88/1
f 287/85/1 288/86/1 267/87/1 266/88/1
f 288/85/1 289/86/1 268/87/1 267/88/1
f 289/85/1 290/86/1 269/87/1 268/88/1
f 290/85/1 291/86/1 270/87/1 269/88/1
f 291/85/1 292/86/1 271/87/1 270/88/1
f 292/89/1 293/90/1 272/91/1 271/92/1
f 293/1/1 294/2/1 273/3/1 272/4/1
f 295/1/1 296/2/1 275/3/1 274/4/1
f 296/1/1 297/2/1 276/3/1 275/4/1
f 297/1/1 298/2/1 277/3/1 276/4/1
f 298/1/1 299/2/1 278/3/1 277/4/1
f 299/1/1 300/2/1 279/3/1 278/4/1
f 300/1/1 301/2/1 280/3/1 279/4/1
f 301/1/1 302/2/1 281/3/1 280/4/1
f 302/1/1 303/2/1 282/3/1 281/4/1
f 303/1/1 304/2/1 283/3/1 282/4/1
f 304/1/1 305/2/1 284/3/1 283/4/1
f 305/1/1 306/2/1 285/3/1 284/4/1
f 306/1/1 307/2/1 286/3/1 285/4/1
f 307/1/1 308/2/1 287/3/1 286/4/1
f 308/1/1 309/2/1 288/3/1 287/4/1
f 309/1/1 310/2/1 289/3/1 288/4/1
f 310/1/1 311/2/1 290/3/1 289/4/1
f 311/1/1 312/2/1 291/3/1 290/4/1
f 312/1/1 313/2/1 292/3/1 291/4/1
f 313/1/1 314/2/1 293/3/1 292/4/1
f 314/1/1 315/2/1 294/3/1 293/4/1

g mesh_0002
f 1/93/1 2/94/1 3/95/1 4/96/1
f 2/93/1 5/94/1 6/95/1 3/96/1
f 5/93/1 7/94/1 8/95/1 6/96/1
f 7/93/1 9/94/1 10/95/1 8/96/1
f 9/93/1 11/94/1 12/95/1 10/96/1
f 11/93/1 13/94/1 14/95/1 12/96/1
f 13/93/1 15/94/1 16/95/1 14/96/1
f 27/93/1 29/94/1 30/95/1 28/96/1
f 29/93/1 31/94/1 32/95/1 30/96/1
f 31/93/1 33/94/1 34/95/1 32/96/1
f 33/93/1 35/94/1 36/95/1 34/96/1
f 35/93/1 37/94/1 38/95/1 36/96/1
f 37/93/1 39/94/1 40/95/1 38/96/1
f 39/93/1 41/94/1 42/95/1 40/96/1
f 43/93/1 44/94/1 2/95/1 1/96/1
f 44/93/1 45/94/1 5/95/1 2/96/1
f 45/93/1 46/94/1 7/95/1 5/96/1
f 46/93/1 47/94/1 9/95/1 7/96/1
f 47/93/1 48/94/1 11/95/1 9/96/1
f 59/93/1 60/94/1 35/95/1 33/96/1
f 60/93/1 61/94/1 37/95/1 35/96/1
f 61/93/1 62/94/1 39/95/1 37/96/1
f 62/93/1 63/94/1 41/95/1 39/96/1
f 64/93/1 65/94/1 44/95/1 43/96/1
f 65/93/1 66/94/1 45/95/1 44/96/1
f 66/93/1 67/94/1 46/95/1 45/96/1
f 67/93/1 68/94/1 47/95/1 46/96/1
f 68/93/1 69/94/1 48/95/1 47/96/1
f 83/93/1 84/94/1 63/95/1 62/96/1
f 85/93/1 86/94/1 65/95/1 64/96/1
f 86/93/1 87/94/1 66/95/1 65/96/1
f 87/93/1 88/94/1 67/95/1 66/96/1
f 88/93/1 89/94/1 68/95/1 67/96/1
f 89/93/1 90/94/1 69/95/1 68/96/1
f 104/93/1 105/94/1 84/95/1 83/96/1
f 106/93/1 107/94/1 86/95/1 85/96/1
f 107/93/1 108/94/1 87/95/1 86/96/1
f 108/93/1 109/94/1 88/95/1 87/96/1
f 127/93/1 128/94/1 107/95/1 106/96/1
f 128/93/1 129/94/1 108/95/1 107/96/1
f 148/93/1 149/94/1 128/95/1 127/96/1
f 149/93/1 150/94/1 129/95/1 128/96/1
f 150/93/1 151/94/1 130/95/1 129/96/1
f 158/97/1 159/98/1 138/99/1 137/100/1
f 161/97/1 162/98/1 141/99/1 140/100/1
f 169/93/1 170/94/1 149/95/1 148/96/1
f 170/93/1 171/94/1 150/95/1 149/96/1
f 171/93/1 172/94/1 151/95/1 150/96/1
f 190/93/1 191/94/1 170/95/1 169/96/1
f 191/93/1 192/94/1 171/95/1 170/96/1
f 192/93/1 193/94/1 172/95/1 171/96/1
f 211/93/1 212/94/1 191/95/1 190/96/1
f 212/93/1 213/94/1 192/95/1 191/96/1
f 213/93/1 214/94/1 193/95/1 192/96/1
f 214/93/1 215/94/1 194/95/1 193/96/1
f 232/93/1 233/94/1 212/95/1 211/96/1
f 233/93/1 234/94/1 213/95/1 212/96/1
f 234/93/1 235/94/1 214/95/1 213/96/1
f 235/93/1 236/94/1 215/95/1 214/96/1
f 236/93/1 237/94/1 216/95/1 215/96/1
f 241/101/1 242/102/1 221/103/1 220/104/1
f 242/105/1 243/106/1 222/107/1 221/108/1
f 243/105/1 244/106/1 223/107/1 222/108/1
f 244/105/1 245/106/1 224/107/1 223/108/1
f 245/105/1 246/106/1 225/107/1 224/108/1
f 246/105/1 247/106/1 226/107/1 225/108/1
f 247/109/1 248/110/1 227/111/1 226/112/1
f 251/93/1 252/94/1 231/95/1 230/96/1
f 253/93/1 254/94/1 233/95/1 232/96/1
f 254/93/1 255/94/1 234/95/1 233/96/1
f 255/93/1 256/94/1 235/95/1 234/96/1
f 256/93/1 257/94/1 236/95/1 235/96/1
f 257/93/1 258/94/1 237/95/1 236/96/1
f 258/93/1 259/94/1 238/95/1 237/96/1
f 262/113/1 263/114/1 242/115/1 241/116/1
f 263/117/1 264/118/1 243/119/1 242/120/1
f 264/117/1 265/118/1 244/119/1 243/120/1
f 265/117/1 266/118/1 245/119/1 244/120/1
f 266/117/1 267/118/1 246/119/1 245/120/1
f 267/117/1 268/118/1 247/119/1 246/120/1
f 268/121/1 269/122/1 248/123/1 247/124/1
f 272/93/1 273/94/1 252/95/1 251/96/1
f 274/93/1 275/94/1 254/95/1 253/96/1
f 275/93/1 276/94/1 255/95/1 254/96/1
f 276/93/1 277/94/1 256/95/1 255/96/1
f 277/93/1 278/94/1 257/95/1 256/96/1
f 278/93/1 279/94/1 258/95/1 257/96/1
f 279/93/1 280/94/1 259/95/1 258/96/1
f 280/93/1 281/94/1 260/95/1 259/96/1
f 281/93/1 282/94/1 261/95/1 260/96/1
f 282/93/1 283/94/1 262/95/1 261/96/1
f 293/93/1 294/94/1 273/95/1 272/96/1
f 295/93/1 296/94/1 275/95/1 274/96/1
f 296/93/1 297/94/1 276/95/1 275/96/1
f 297/93/1 298/94/1 277/95/1 276/96/1
f 298/93/1 299/94/1 278/95/1 277/96/1
f 299/93/1 300/94/1 279/95/1 278/96/1
f 300/93/1 301/94/1 280/95/1 279/96/1
f 301/93/1 302/94/1 281/95/1 280/96/1
f 302/93/1 303/94/1 282/95/1 281/96/1
f 303/93/1 304/94/1 283/95/1 282/96/1
f 304/93/1 305/94/1 284/95/1 283/96/1
f 305/93/1 306/94/1 285/95/1 284/96/1
f 306/93/1 307/94/1 286/95/1 285/96/1
f 307/93/1 308/94/1 287/95/1 286/96/1
f 308/93/1 309/94/1 288/95/1 287/96/1
f 309/93/1 310/94/1 289/95/1 288/96/1
f 310/93/1 311/94/1 290/95/1 289/96/1
f 311/93/1 312/94/1 291/95/1 290/96/1
f 312/93/1 313/94/1 292/95/1 291/96/1
f 313/93/1 314/94/1 293/95/1 292/96/1
f 314/93/1 315/94/1 294/95/1 293/96/1

