# Wavefront OBJ file automatically generated by Tiled2Unity

# Vertices (Count = 315)
v -32 -64 0
v -64 -64 0
v -64 -32 0
v -32 -32 0
v -96 -64 0
v -96 -32 0
v -128 -64 0
v -128 -32 0
v -160 -64 0
v -160 -32 0
v -192 -64 0
v -192 -32 0
v -224 -64 0
v -224 -32 0
v -256 -64 0
v -256 -32 0
v -288 -64 0
v -288 -32 0
v -320 -64 0
v -320 -32 0
v -352 -64 0
v -352 -32 0
v -384 -64 0
v -384 -32 0
v -416 -64 0
v -416 -32 0
v -448 -64 0
v -448 -32 0
v -480 -64 0
v -480 -32 0
v -512 -64 0
v -512 -32 0
v -544 -64 0
v -544 -32 0
v -576 -64 0
v -576 -32 0
v -608 -64 0
v -608 -32 0
v -640 -64 0
v -640 -32 0
v -672 -64 0
v -672 -32 0
v -32 -96 0
v -64 -96 0
v -96 -96 0
v -128 -96 0
v -160 -96 0
v -192 -96 0
v -224 -96 0
v -256 -96 0
v -288 -96 0
v -320 -96 0
v -352 -96 0
v -384 -96 0
v -416 -96 0
v -448 -96 0
v -480 -96 0
v -512 -96 0
v -544 -96 0
v -576 -96 0
v -608 -96 0
v -640 -96 0
v -672 -96 0
v -32 -128 0
v -64 -128 0
v -96 -128 0
v -128 -128 0
v -160 -128 0
v -192 -128 0
v -224 -128 0
v -256 -128 0
v -288 -128 0
v -320 -128 0
v -352 -128 0
v -384 -128 0
v -416 -128 0
v -448 -128 0
v -480 -128 0
v -512 -128 0
v -544 -128 0
v -576 -128 0
v -608 -128 0
v -640 -128 0
v -672 -128 0
v -32 -160 0
v -64 -160 0
v -96 -160 0
v -128 -160 0
v -160 -160 0
v -192 -160 0
v -224 -160 0
v -256 -160 0
v -288 -160 0
v -320 -160 0
v -352 -160 0
v -384 -160 0
v -416 -160 0
v -448 -160 0
v -480 -160 0
v -512 -160 0
v -544 -160 0
v -576 -160 0
v -608 -160 0
v -640 -160 0
v -672 -160 0
v -32 -192 0
v -64 -192 0
v -96 -192 0
v -128 -192 0
v -160 -192 0
v -192 -192 0
v -224 -192 0
v -256 -192 0
v -288 -192 0
v -320 -192 0
v -352 -192 0
v -384 -192 0
v -416 -192 0
v -448 -192 0
v -480 -192 0
v -512 -192 0
v -544 -192 0
v -576 -192 0
v -608 -192 0
v -640 -192 0
v -672 -192 0
v -32 -224 0
v -64 -224 0
v -96 -224 0
v -128 -224 0
v -160 -224 0
v -192 -224 0
v -224 -224 0
v -256 -224 0
v -288 -224 0
v -320 -224 0
v -352 -224 0
v -384 -224 0
v -416 -224 0
v -448 -224 0
v -480 -224 0
v -512 -224 0
v -544 -224 0
v -576 -224 0
v -608 -224 0
v -640 -224 0
v -672 -224 0
v -32 -256 0
v -64 -256 0
v -96 -256 0
v -128 -256 0
v -160 -256 0
v -192 -256 0
v -224 -256 0
v -256 -256 0
v -288 -256 0
v -320 -256 0
v -352 -256 0
v -384 -256 0
v -416 -256 0
v -448 -256 0
v -480 -256 0
v -512 -256 0
v -544 -256 0
v -576 -256 0
v -608 -256 0
v -640 -256 0
v -672 -256 0
v -32 -288 0
v -64 -288 0
v -96 -288 0
v -128 -288 0
v -160 -288 0
v -192 -288 0
v -224 -288 0
v -256 -288 0
v -288 -288 0
v -320 -288 0
v -352 -288 0
v -384 -288 0
v -416 -288 0
v -448 -288 0
v -480 -288 0
v -512 -288 0
v -544 -288 0
v -576 -288 0
v -608 -288 0
v -640 -288 0
v -672 -288 0
v -32 -320 0
v -64 -320 0
v -96 -320 0
v -128 -320 0
v -160 -320 0
v -192 -320 0
v -224 -320 0
v -256 -320 0
v -288 -320 0
v -320 -320 0
v -352 -320 0
v -384 -320 0
v -416 -320 0
v -448 -320 0
v -480 -320 0
v -512 -320 0
v -544 -320 0
v -576 -320 0
v -608 -320 0
v -640 -320 0
v -672 -320 0
v -32 -352 0
v -64 -352 0
v -96 -352 0
v -128 -352 0
v -160 -352 0
v -192 -352 0
v -224 -352 0
v -256 -352 0
v -288 -352 0
v -320 -352 0
v -352 -352 0
v -384 -352 0
v -416 -352 0
v -448 -352 0
v -480 -352 0
v -512 -352 0
v -544 -352 0
v -576 -352 0
v -608 -352 0
v -640 -352 0
v -672 -352 0
v -32 -384 0
v -64 -384 0
v -96 -384 0
v -128 -384 0
v -160 -384 0
v -192 -384 0
v -224 -384 0
v -256 -384 0
v -288 -384 0
v -320 -384 0
v -352 -384 0
v -384 -384 0
v -416 -384 0
v -448 -384 0
v -480 -384 0
v -512 -384 0
v -544 -384 0
v -576 -384 0
v -608 -384 0
v -640 -384 0
v -672 -384 0
v -32 -416 0
v -64 -416 0
v -96 -416 0
v -128 -416 0
v -160 -416 0
v -192 -416 0
v -224 -416 0
v -256 -416 0
v -288 -416 0
v -320 -416 0
v -352 -416 0
v -384 -416 0
v -416 -416 0
v -448 -416 0
v -480 -416 0
v -512 -416 0
v -544 -416 0
v -576 -416 0
v -608 -416 0
v -640 -416 0
v -672 -416 0
v -32 -448 0
v -64 -448 0
v -96 -448 0
v -128 -448 0
v -160 -448 0
v -192 -448 0
v -224 -448 0
v -256 -448 0
v -288 -448 0
v -320 -448 0
v -352 -448 0
v -384 -448 0
v -416 -448 0
v -448 -448 0
v -480 -448 0
v -512 -448 0
v -544 -448 0
v -576 -448 0
v -608 -448 0
v -640 -448 0
v -672 -448 0
v -32 -480 0
v -64 -480 0
v -96 -480 0
v -128 -480 0
v -160 -480 0
v -192 -480 0
v -224 -480 0
v -256 -480 0
v -288 -480 0
v -320 -480 0
v -352 -480 0
v -384 -480 0
v -416 -480 0
v -448 -480 0
v -480 -480 0
v -512 -480 0
v -544 -480 0
v -576 -480 0
v -608 -480 0
v -640 -480 0
v -672 -480 0

# Texture cooridinates (Count = 132)
vt 0.06262207 0.7501221
vt 0.1248779 0.7501221
vt 0.1248779 0.8748779
vt 0.06262207 0.8748779
vt 0.0001220703 0.5001221
vt 0.06237793 0.5001221
vt 0.06237793 0.6248779
vt 0.0001220703 0.6248779
vt 0.06262207 0.6251221
vt 0.1248779 0.6251221
vt 0.1248779 0.7498779
vt 0.06262207 0.7498779
vt 0.06262207 0.5001221
vt 0.1248779 0.5001221
vt 0.1248779 0.6248779
vt 0.06262207 0.6248779
vt 0.1251221 0.7501221
vt 0.1873779 0.7501221
vt 0.1873779 0.8748779
vt 0.1251221 0.8748779
vt 0.1876221 0.7501221
vt 0.2498779 0.7501221
vt 0.2498779 0.8748779
vt 0.1876221 0.8748779
vt 0.2501221 0.7501221
vt 0.3123779 0.7501221
vt 0.3123779 0.8748779
vt 0.2501221 0.8748779
vt 0.3126221 0.7501221
vt 0.3748779 0.7501221
vt 0.3748779 0.8748779
vt 0.3126221 0.8748779
vt 0.0001220703 0.7501221
vt 0.06237793 0.7501221
vt 0.06237793 0.8748779
vt 0.0001220703 0.8748779
vt 0.2501221 0.6251221
vt 0.3123779 0.6251221
vt 0.3123779 0.7498779
vt 0.2501221 0.7498779
vt 0.3126221 0.6251221
vt 0.3748779 0.6251221
vt 0.3748779 0.7498779
vt 0.3126221 0.7498779
vt 0.1876221 0.6251221
vt 0.2498779 0.6251221
vt 0.2498779 0.7498779
vt 0.1876221 0.7498779
vt 0.3126221 0.8751221
vt 0.3748779 0.8751221
vt 0.3748779 0.9998779
vt 0.3126221 0.9998779
vt 0.1876221 0.8751221
vt 0.2498779 0.8751221
vt 0.2498779 0.9998779
vt 0.1876221 0.9998779
vt 0.3751221 0.8751221
vt 0.4373779 0.8751221
vt 0.4373779 0.9998779
vt 0.3751221 0.9998779
vt 0.4376221 0.8751221
vt 0.4998779 0.8751221
vt 0.4998779 0.9998779
vt 0.4376221 0.9998779
vt 0.5001221 0.8751221
vt 0.5623779 0.8751221
vt 0.5623779 0.9998779
vt 0.5001221 0.9998779
vt 0.3751221 0.7501221
vt 0.4373779 0.7501221
vt 0.4373779 0.8748779
vt 0.3751221 0.8748779
vt 0.4376221 0.7501221
vt 0.4998779 0.7501221
vt 0.4998779 0.8748779
vt 0.4376221 0.8748779
vt 0.5001221 0.3751221
vt 0.5623779 0.3751221
vt 0.5623779 0.4998779
vt 0.5001221 0.4998779
vt 0.5001221 0.7501221
vt 0.5623779 0.7501221
vt 0.5623779 0.8748779
vt 0.5001221 0.8748779
vt 0.5001221 0.5001221
vt 0.5623779 0.5001221
vt 0.5623779 0.6248779
vt 0.5001221 0.6248779
vt 0.3751221 0.6251221
vt 0.4373779 0.6251221
vt 0.4373779 0.7498779
vt 0.3751221 0.7498779
vt 0.4376221 0.6251221
vt 0.4998779 0.6251221
vt 0.4998779 0.7498779
vt 0.4376221 0.7498779
vt 0.5001221 0.6251221
vt 0.5623779 0.6251221
vt 0.5623779 0.7498779
vt 0.5001221 0.7498779
vt 0.2501221 0.8751221
vt 0.3123779 0.8751221
vt 0.3123779 0.9998779
vt 0.2501221 0.9998779
vt 0.0001220703 0.3751221
vt 0.06237793 0.3751221
vt 0.06237793 0.4998779
vt 0.0001220703 0.4998779
vt 0.06262207 0.8751221
vt 0.1248779 0.8751221
vt 0.1248779 0.9998779
vt 0.06262207 0.9998779
vt 0.1251221 0.8751221
vt 0.1873779 0.8751221
vt 0.1873779 0.9998779
vt 0.1251221 0.9998779
vt 0.0001220703 0.8751221
vt 0.06237793 0.8751221
vt 0.06237793 0.9998779
vt 0.0001220703 0.9998779
vt 0.06262207 0.3751221
vt 0.1248779 0.3751221
vt 0.1248779 0.4998779
vt 0.06262207 0.4998779
vt 0.0001220703 0.2501221
vt 0.06237793 0.2501221
vt 0.06237793 0.3748779
vt 0.0001220703 0.3748779
vt 0.06262207 0.2501221
vt 0.1248779 0.2501221
vt 0.1248779 0.3748779
vt 0.06262207 0.3748779

# Normal
vn 0 0 -1

# Groups (Count = 2)

g mesh_0001
f 1/1/1 2/2/1 3/3/1 4/4/1
f 2/1/1 5/2/1 6/3/1 3/4/1
f 5/1/1 7/2/1 8/3/1 6/4/1
f 7/1/1 9/2/1 10/3/1 8/4/1
f 9/1/1 11/2/1 12/3/1 10/4/1
f 11/1/1 13/2/1 14/3/1 12/4/1
f 13/1/1 15/2/1 16/3/1 14/4/1
f 15/1/1 17/2/1 18/3/1 16/4/1
f 17/1/1 19/2/1 20/3/1 18/4/1
f 19/1/1 21/2/1 22/3/1 20/4/1
f 21/1/1 23/2/1 24/3/1 22/4/1
f 23/1/1 25/2/1 26/3/1 24/4/1
f 25/1/1 27/2/1 28/3/1 26/4/1
f 27/1/1 29/2/1 30/3/1 28/4/1
f 29/1/1 31/2/1 32/3/1 30/4/1
f 31/1/1 33/2/1 34/3/1 32/4/1
f 33/1/1 35/2/1 36/3/1 34/4/1
f 35/1/1 37/2/1 38/3/1 36/4/1
f 37/1/1 39/2/1 40/3/1 38/4/1
f 39/1/1 41/2/1 42/3/1 40/4/1
f 43/1/1 44/2/1 2/3/1 1/4/1
f 44/1/1 45/2/1 5/3/1 2/4/1
f 45/1/1 46/2/1 7/3/1 5/4/1
f 46/1/1 47/2/1 9/3/1 7/4/1
f 47/1/1 48/2/1 11/3/1 9/4/1
f 48/1/1 49/2/1 13/3/1 11/4/1
f 49/1/1 50/2/1 15/3/1 13/4/1
f 50/1/1 51/2/1 17/3/1 15/4/1
f 51/1/1 52/2/1 19/3/1 17/4/1
f 52/1/1 53/2/1 21/3/1 19/4/1
f 53/1/1 54/2/1 23/3/1 21/4/1
f 54/1/1 55/2/1 25/3/1 23/4/1
f 55/1/1 56/2/1 27/3/1 25/4/1
f 56/1/1 57/2/1 29/3/1 27/4/1
f 57/1/1 58/2/1 31/3/1 29/4/1
f 58/1/1 59/2/1 33/3/1 31/4/1
f 59/1/1 60/2/1 35/3/1 33/4/1
f 60/1/1 61/2/1 37/3/1 35/4/1
f 61/1/1 62/2/1 39/3/1 37/4/1
f 62/1/1 63/2/1 41/3/1 39/4/1
f 64/1/1 65/2/1 44/3/1 43/4/1
f 65/1/1 66/2/1 45/3/1 44/4/1
f 66/1/1 67/2/1 46/3/1 45/4/1
f 67/1/1 68/2/1 47/3/1 46/4/1
f 68/1/1 69/2/1 48/3/1 47/4/1
f 69/1/1 70/2/1 49/3/1 48/4/1
f 70/1/1 71/2/1 50/3/1 49/4/1
f 71/1/1 72/2/1 51/3/1 50/4/1
f 72/1/1 73/2/1 52/3/1 51/4/1
f 73/1/1 74/2/1 53/3/1 52/4/1
f 74/1/1 75/2/1 54/3/1 53/4/1
f 75/1/1 76/2/1 55/3/1 54/4/1
f 76/1/1 77/2/1 56/3/1 55/4/1
f 77/1/1 78/2/1 57/3/1 56/4/1
f 78/1/1 79/2/1 58/3/1 57/4/1
f 79/1/1 80/2/1 59/3/1 58/4/1
f 80/1/1 81/2/1 60/3/1 59/4/1
f 81/1/1 82/2/1 61/3/1 60/4/1
f 82/1/1 83/2/1 62/3/1 61/4/1
f 83/1/1 84/2/1 63/3/1 62/4/1
f 85/1/1 86/2/1 65/3/1 64/4/1
f 86/1/1 87/2/1 66/3/1 65/4/1
f 87/5/1 88/6/1 67/7/1 66/8/1
f 88/9/1 89/10/1 68/11/1 67/12/1
f 89/9/1 90/10/1 69/11/1 68/12/1
f 90/9/1 91/10/1 70/11/1 69/12/1
f 91/9/1 92/10/1 71/11/1 70/12/1
f 92/9/1 93/10/1 72/11/1 71/12/1
f 93/9/1 94/10/1 73/11/1 72/12/1
f 94/9/1 95/10/1 74/11/1 73/12/1
f 95/9/1 96/10/1 75/11/1 74/12/1
f 96/9/1 97/10/1 76/11/1 75/12/1
f 97/9/1 98/10/1 77/11/1 76/12/1
f 98/9/1 99/10/1 78/11/1 77/12/1
f 99/9/1 100/10/1 79/11/1 78/12/1
f 100/9/1 101/10/1 80/11/1 79/12/1
f 101/9/1 102/10/1 81/11/1 80/12/1
f 102/13/1 103/14/1 82/15/1 81/16/1
f 103/1/1 104/2/1 83/3/1 82/4/1
f 104/1/1 105/2/1 84/3/1 83/4/1
f 106/1/1 107/2/1 86/3/1 85/4/1
f 107/1/1 108/2/1 87/3/1 86/4/1
f 108/17/1 109/18/1 88/19/1 87/20/1
f 109/21/1 110/22/1 89/23/1 88/24/1
f 110/25/1 111/26/1 90/27/1 89/28/1
f 111/29/1 112/30/1 91/31/1 90/32/1
f 112/21/1 113/22/1 92/23/1 91/24/1
f 113/25/1 114/26/1 93/27/1 92/28/1
f 114/29/1 115/30/1 94/31/1 93/32/1
f 115/21/1 116/22/1 95/23/1 94/24/1
f 116/25/1 117/26/1 96/27/1 95/28/1
f 117/29/1 118/30/1 97/31/1 96/32/1
f 118/21/1 119/22/1 98/23/1 97/24/1
f 119/25/1 120/26/1 99/27/1 98/28/1
f 120/29/1 121/30/1 100/31/1 99/32/1
f 121/21/1 122/22/1 101/23/1 100/24/1
f 122/25/1 123/26/1 102/27/1 101/28/1
f 123/33/1 124/34/1 103/35/1 102/36/1
f 124/1/1 125/2/1 104/3/1 103/4/1
f 125/1/1 126/2/1 105/3/1 104/4/1
f 127/1/1 128/2/1 107/3/1 106/4/1
f 128/1/1 129/2/1 108/3/1 107/4/1
f 129/17/1 130/18/1 109/19/1 108/20/1
f 130/29/1 131/30/1 110/31/1 109/32/1
f 131/29/1 132/30/1 111/31/1 110/32/1
f 132/29/1 133/30/1 112/31/1 111/32/1
f 133/29/1 134/30/1 113/31/1 112/32/1
f 134/37/1 135/38/1 114/39/1 113/40/1
f 135/41/1 136/42/1 115/43/1 114/44/1
f 136/45/1 137/46/1 116/47/1 115/48/1
f 137/37/1 138/38/1 117/39/1 116/40/1
f 138/41/1 139/42/1 118/43/1 117/44/1
f 139/45/1 140/46/1 119/47/1 118/48/1
f 140/37/1 141/38/1 120/39/1 119/40/1
f 141/41/1 142/42/1 121/43/1 120/44/1
f 142/45/1 143/46/1 122/47/1 121/48/1
f 143/37/1 144/38/1 123/39/1 122/40/1
f 144/33/1 145/34/1 124/35/1 123/36/1
f 145/1/1 146/2/1 125/3/1 124/4/1
f 146/1/1 147/2/1 126/3/1 125/4/1
f 148/1/1 149/2/1 128/3/1 127/4/1
f 149/1/1 150/2/1 129/3/1 128/4/1
f 150/17/1 151/18/1 130/19/1 129/20/1
f 151/49/1 152/50/1 131/51/1 130/52/1
f 152/49/1 153/50/1 132/51/1 131/52/1
f 153/53/1 154/54/1 133/55/1 132/56/1
f 154/57/1 155/58/1 134/59/1 133/60/1
f 155/61/1 156/62/1 135/63/1 134/64/1
f 156/61/1 157/62/1 136/63/1 135/64/1
f 157/61/1 158/62/1 137/63/1 136/64/1
f 158/61/1 159/62/1 138/63/1 137/64/1
f 159/61/1 160/62/1 139/63/1 138/64/1
f 160/61/1 161/62/1 140/63/1 139/64/1
f 161/65/1 162/66/1 141/67/1 140/68/1
f 162/49/1 163/50/1 142/51/1 141/52/1
f 163/53/1 164/54/1 143/55/1 142/56/1
f 164/53/1 165/54/1 144/55/1 143/56/1
f 165/33/1 166/34/1 145/35/1 144/36/1
f 166/1/1 167/2/1 146/3/1 145/4/1
f 167/1/1 168/2/1 147/3/1 146/4/1
f 169/1/1 170/2/1 149/3/1 148/4/1
f 170/1/1 171/2/1 150/3/1 149/4/1
f 171/17/1 172/18/1 151/19/1 150/20/1
f 172/29/1 173/30/1 152/31/1 151/32/1
f 173/29/1 174/30/1 153/31/1 152/32/1
f 174/21/1 175/22/1 154/23/1 153/24/1
f 175/69/1 176/70/1 155/71/1 154/72/1
f 176/73/1 177/74/1 156/75/1 155/76/1
f 177/73/1 178/74/1 157/75/1 156/76/1
f 178/77/1 179/78/1 158/79/1 157/80/1
f 179/73/1 180/74/1 159/75/1 158/76/1
f 180/73/1 181/74/1 160/75/1 159/76/1
f 181/73/1 182/74/1 161/75/1 160/76/1
f 182/81/1 183/82/1 162/83/1 161/84/1
f 183/29/1 184/30/1 163/31/1 162/32/1
f 184/21/1 185/22/1 164/23/1 163/24/1
f 185/21/1 186/22/1 165/23/1 164/24/1
f 186/33/1 187/34/1 166/35/1 165/36/1
f 187/1/1 188/2/1 167/3/1 166/4/1
f 188/1/1 189/2/1 168/3/1 167/4/1
f 190/1/1 191/2/1 170/3/1 169/4/1
f 191/1/1 192/2/1 171/3/1 170/4/1
f 192/17/1 193/18/1 172/19/1 171/20/1
f 193/41/1 194/42/1 173/43/1 172/44/1
f 194/41/1 195/42/1 174/43/1 173/44/1
f 195/45/1 196/46/1 175/47/1 174/48/1
f 196/69/1 197/70/1 176/71/1 175/72/1
f 197/73/1 198/74/1 177/75/1 176/76/1
f 198/73/1 199/74/1 178/75/1 177/76/1
f 199/73/1 200/74/1 179/75/1 178/76/1
f 200/85/1 201/86/1 180/87/1 179/88/1
f 201/73/1 202/74/1 181/75/1 180/76/1
f 202/73/1 203/74/1 182/75/1 181/76/1
f 203/81/1 204/82/1 183/83/1 182/84/1
f 204/41/1 205/42/1 184/43/1 183/44/1
f 205/45/1 206/46/1 185/47/1 184/48/1
f 206/45/1 207/46/1 186/47/1 185/48/1
f 207/33/1 208/34/1 187/35/1 186/36/1
f 208/1/1 209/2/1 188/3/1 187/4/1
f 209/1/1 210/2/1 189/3/1 188/4/1
f 211/1/1 212/2/1 191/3/1 190/4/1
f 212/1/1 213/2/1 192/3/1 191/4/1
f 213/17/1 214/18/1 193/19/1 192/20/1
f 214/49/1 215/50/1 194/51/1 193/52/1
f 215/49/1 216/50/1 195/51/1 194/52/1
f 216/53/1 217/54/1 196/55/1 195/56/1
f 217/89/1 218/90/1 197/91/1 196/92/1
f 218/93/1 219/94/1 198/95/1 197/96/1
f 219/93/1 220/94/1 199/95/1 198/96/1
f 220/93/1 221/94/1 200/95/1 199/96/1
f 221/93/1 222/94/1 201/95/1 200/96/1
f 222/93/1 223/94/1 202/95/1 201/96/1
f 223/93/1 224/94/1 203/95/1 202/96/1
f 224/97/1 225/98/1 204/99/1 203/100/1
f 225/49/1 226/50/1 205/51/1 204/52/1
f 226/53/1 227/54/1 206/55/1 205/56/1
f 227/53/1 228/54/1 207/55/1 206/56/1
f 228/33/1 229/34/1 208/35/1 207/36/1
f 229/1/1 230/2/1 209/3/1 208/4/1
f 230/1/1 231/2/1 210/3/1 209/4/1
f 232/1/1 233/2/1 212/3/1 211/4/1
f 233/1/1 234/2/1 213/3/1 212/4/1
f 234/17/1 235/18/1 214/19/1 213/20/1
f 235/29/1 236/30/1 215/31/1 214/32/1
f 236/21/1 237/22/1 216/23/1 215/24/1
f 237/25/1 238/26/1 217/27/1 216/28/1
f 238/29/1 239/30/1 218/31/1 217/32/1
f 239/21/1 240/22/1 219/23/1 218/24/1
f 240/25/1 241/26/1 220/27/1 219/28/1
f 241/29/1 242/30/1 221/31/1 220/32/1
f 242/21/1 243/22/1 222/23/1 221/24/1
f 243/25/1 244/26/1 223/27/1 222/28/1
f 244/29/1 245/30/1 224/31/1 223/32/1
f 245/21/1 246/22/1 225/23/1 224/24/1
f 246/25/1 247/26/1 226/27/1 225/28/1
f 247/29/1 248/30/1 227/31/1 226/32/1
f 248/21/1 249/22/1 228/23/1 227/24/1
f 249/33/1 250/34/1 229/35/1 228/36/1
f 250/1/1 251/2/1 230/3/1 229/4/1
f 251/1/1 252/2/1 231/3/1 230/4/1
f 253/1/1 254/2/1 233/3/1 232/4/1
f 254/1/1 255/2/1 234/3/1 233/4/1
f 255/17/1 256/18/1 235/19/1 234/20/1
f 256/41/1 257/42/1 236/43/1 235/44/1
f 257/45/1 258/46/1 237/47/1 236/48/1
f 258/37/1 259/38/1 238/39/1 237/40/1
f 259/41/1 260/42/1 239/43/1 238/44/1
f 260/45/1 261/46/1 240/47/1 239/48/1
f 261/37/1 262/38/1 241/39/1 240/40/1
f 262/53/1 263/54/1 242/55/1 241/56/1
f 263/101/1 264/102/1 243/103/1 242/104/1
f 264/49/1 265/50/1 244/51/1 243/52/1
f 265/41/1 266/42/1 245/43/1 244/44/1
f 266/45/1 267/46/1 246/47/1 245/48/1
f 267/37/1 268/38/1 247/39/1 246/40/1
f 268/41/1 269/42/1 248/43/1 247/44/1
f 269/45/1 270/46/1 249/47/1 248/48/1
f 270/33/1 271/34/1 250/35/1 249/36/1
f 271/1/1 272/2/1 251/3/1 250/4/1
f 272/1/1 273/2/1 252/3/1 251/4/1
f 274/1/1 275/2/1 254/3/1 253/4/1
f 275/1/1 276/2/1 255/3/1 254/4/1
f 276/105/1 277/106/1 256/107/1 255/108/1
f 277/109/1 278/110/1 257/111/1 256/112/1
f 278/109/1 279/110/1 258/111/1 257/112/1
f 279/109/1 280/110/1 259/111/1 258/112/1
f 280/109/1 281/110/1 260/111/1 259/112/1
f 281/113/1 282/114/1 261/115/1 260/116/1
f 282/37/1 283/38/1 262/39/1 261/40/1
f 283/21/1 284/22/1 263/23/1 262/24/1
f 284/25/1 285/26/1 264/27/1 263/28/1
f 285/29/1 286/30/1 265/31/1 264/32/1
f 286/117/1 287/118/1 266/119/1 265/120/1
f 287/109/1 288/110/1 267/111/1 266/112/1
f 288/109/1 289/110/1 268/111/1 267/112/1
f 289/109/1 290/110/1 269/111/1 268/112/1
f 290/109/1 291/110/1 270/111/1 269/112/1
f 291/121/1 292/122/1 271/123/1 270/124/1
f 292/1/1 293/2/1 272/3/1 271/4/1
f 293/1/1 294/2/1 273/3/1 272/4/1
f 295/1/1 296/2/1 275/3/1 274/4/1
f 296/1/1 297/2/1 276/3/1 275/4/1
f 297/1/1 298/2/1 277/3/1 276/4/1
f 298/1/1 299/2/1 278/3/1 277/4/1
f 299/1/1 300/2/1 279/3/1 278/4/1
f 300/1/1 301/2/1 280/3/1 279/4/1
f 301/1/1 302/2/1 281/3/1 280/4/1
f 302/17/1 303/18/1 282/19/1 281/20/1
f 303/37/1 304/38/1 283/39/1 282/40/1
f 304/45/1 305/46/1 284/47/1 283/48/1
f 305/37/1 306/38/1 285/39/1 284/40/1
f 306/41/1 307/42/1 286/43/1 285/44/1
f 307/33/1 308/34/1 287/35/1 286/36/1
f 308/1/1 309/2/1 288/3/1 287/4/1
f 309/1/1 310/2/1 289/3/1 288/4/1
f 310/1/1 311/2/1 290/3/1 289/4/1
f 311/1/1 312/2/1 291/3/1 290/4/1
f 312/1/1 313/2/1 292/3/1 291/4/1
f 313/1/1 314/2/1 293/3/1 292/4/1
f 314/1/1 315/2/1 294/3/1 293/4/1

g mesh_0002
f 1/125/1 2/126/1 3/127/1 4/128/1
f 2/125/1 5/126/1 6/127/1 3/128/1
f 5/125/1 7/126/1 8/127/1 6/128/1
f 7/125/1 9/126/1 10/127/1 8/128/1
f 9/125/1 11/126/1 12/127/1 10/128/1
f 11/125/1 13/126/1 14/127/1 12/128/1
f 13/125/1 15/126/1 16/127/1 14/128/1
f 15/125/1 17/126/1 18/127/1 16/128/1
f 17/125/1 19/126/1 20/127/1 18/128/1
f 19/125/1 21/126/1 22/127/1 20/128/1
f 21/125/1 23/126/1 24/127/1 22/128/1
f 23/125/1 25/126/1 26/127/1 24/128/1
f 25/125/1 27/126/1 28/127/1 26/128/1
f 27/125/1 29/126/1 30/127/1 28/128/1
f 29/125/1 31/126/1 32/127/1 30/128/1
f 31/125/1 33/126/1 34/127/1 32/128/1
f 33/125/1 35/126/1 36/127/1 34/128/1
f 35/125/1 37/126/1 38/127/1 36/128/1
f 37/125/1 39/126/1 40/127/1 38/128/1
f 39/125/1 41/126/1 42/127/1 40/128/1
f 43/125/1 44/126/1 2/127/1 1/128/1
f 44/125/1 45/126/1 5/127/1 2/128/1
f 45/125/1 46/126/1 7/127/1 5/128/1
f 46/125/1 47/126/1 9/127/1 7/128/1
f 47/125/1 48/126/1 11/127/1 9/128/1
f 48/125/1 49/126/1 13/127/1 11/128/1
f 49/125/1 50/126/1 15/127/1 13/128/1
f 50/125/1 51/126/1 17/127/1 15/128/1
f 51/125/1 52/126/1 19/127/1 17/128/1
f 52/125/1 53/126/1 21/127/1 19/128/1
f 53/125/1 54/126/1 23/127/1 21/128/1
f 54/125/1 55/126/1 25/127/1 23/128/1
f 55/125/1 56/126/1 27/127/1 25/128/1
f 56/125/1 57/126/1 29/127/1 27/128/1
f 57/125/1 58/126/1 31/127/1 29/128/1
f 58/125/1 59/126/1 33/127/1 31/128/1
f 59/125/1 60/126/1 35/127/1 33/128/1
f 60/125/1 61/126/1 37/127/1 35/128/1
f 61/125/1 62/126/1 39/127/1 37/128/1
f 62/125/1 63/126/1 41/127/1 39/128/1
f 64/125/1 65/126/1 44/127/1 43/128/1
f 65/125/1 66/126/1 45/127/1 44/128/1
f 66/125/1 67/126/1 46/127/1 45/128/1
f 67/125/1 68/126/1 47/127/1 46/128/1
f 68/125/1 69/126/1 48/127/1 47/128/1
f 69/125/1 70/126/1 49/127/1 48/128/1
f 70/125/1 71/126/1 50/127/1 49/128/1
f 71/125/1 72/126/1 51/127/1 50/128/1
f 72/125/1 73/126/1 52/127/1 51/128/1
f 73/125/1 74/126/1 53/127/1 52/128/1
f 74/125/1 75/126/1 54/127/1 53/128/1
f 75/125/1 76/126/1 55/127/1 54/128/1
f 76/125/1 77/126/1 56/127/1 55/128/1
f 77/125/1 78/126/1 57/127/1 56/128/1
f 78/125/1 79/126/1 58/127/1 57/128/1
f 79/125/1 80/126/1 59/127/1 58/128/1
f 80/125/1 81/126/1 60/127/1 59/128/1
f 81/125/1 82/126/1 61/127/1 60/128/1
f 82/125/1 83/126/1 62/127/1 61/128/1
f 83/125/1 84/126/1 63/127/1 62/128/1
f 85/125/1 86/126/1 65/127/1 64/128/1
f 86/125/1 87/126/1 66/127/1 65/128/1
f 103/125/1 104/126/1 83/127/1 82/128/1
f 104/125/1 105/126/1 84/127/1 83/128/1
f 106/125/1 107/126/1 86/127/1 85/128/1
f 107/125/1 108/126/1 87/127/1 86/128/1
f 124/125/1 125/126/1 104/127/1 103/128/1
f 125/125/1 126/126/1 105/127/1 104/128/1
f 127/125/1 128/126/1 107/127/1 106/128/1
f 128/125/1 129/126/1 108/127/1 107/128/1
f 145/125/1 146/126/1 125/127/1 124/128/1
f 146/125/1 147/126/1 126/127/1 125/128/1
f 148/125/1 149/126/1 128/127/1 127/128/1
f 149/125/1 150/126/1 129/127/1 128/128/1
f 166/125/1 167/126/1 146/127/1 145/128/1
f 167/125/1 168/126/1 147/127/1 146/128/1
f 169/125/1 170/126/1 149/127/1 148/128/1
f 170/125/1 171/126/1 150/127/1 149/128/1
f 187/125/1 188/126/1 167/127/1 166/128/1
f 188/125/1 189/126/1 168/127/1 167/128/1
f 190/125/1 191/126/1 170/127/1 169/128/1
f 191/125/1 192/126/1 171/127/1 170/128/1
f 208/125/1 209/126/1 188/127/1 187/128/1
f 209/125/1 210/126/1 189/127/1 188/128/1
f 211/125/1 212/126/1 191/127/1 190/128/1
f 212/125/1 213/126/1 192/127/1 191/128/1
f 229/125/1 230/126/1 209/127/1 208/128/1
f 230/125/1 231/126/1 210/127/1 209/128/1
f 232/125/1 233/126/1 212/127/1 211/128/1
f 233/125/1 234/126/1 213/127/1 212/128/1
f 250/125/1 251/126/1 230/127/1 229/128/1
f 251/125/1 252/126/1 231/127/1 230/128/1
f 253/125/1 254/126/1 233/127/1 232/128/1
f 254/125/1 255/126/1 234/127/1 233/128/1
f 271/125/1 272/126/1 251/127/1 250/128/1
f 272/125/1 273/126/1 252/127/1 251/128/1
f 274/125/1 275/126/1 254/127/1 253/128/1
f 275/125/1 276/126/1 255/127/1 254/128/1
f 292/125/1 293/126/1 272/127/1 271/128/1
f 293/125/1 294/126/1 273/127/1 272/128/1
f 295/125/1 296/126/1 275/127/1 274/128/1
f 296/125/1 297/126/1 276/127/1 275/128/1
f 297/125/1 298/126/1 277/127/1 276/128/1
f 298/125/1 299/126/1 278/127/1 277/128/1
f 299/125/1 300/126/1 279/127/1 278/128/1
f 300/125/1 301/126/1 280/127/1 279/128/1
f 301/125/1 302/126/1 281/127/1 280/128/1
f 308/125/1 309/126/1 288/127/1 287/128/1
f 309/125/1 310/126/1 289/127/1 288/128/1
f 310/125/1 311/126/1 290/127/1 289/128/1
f 311/125/1 312/126/1 291/127/1 290/128/1
f 312/125/1 313/126/1 292/127/1 291/128/1
f 313/125/1 314/126/1 293/127/1 292/128/1
f 314/125/1 315/126/1 294/127/1 293/128/1

g mesh_0003
f 194/129/1 195/130/1 174/131/1 173/132/1
f 205/129/1 206/130/1 185/131/1 184/132/1

