# Wavefront OBJ file automatically generated by Tiled2Unity

# Vertices (Count = 315)
v -32 -64 0
v -64 -64 0
v -64 -32 0
v -32 -32 0
v -96 -64 0
v -96 -32 0
v -128 -64 0
v -128 -32 0
v -160 -64 0
v -160 -32 0
v -192 -64 0
v -192 -32 0
v -224 -64 0
v -224 -32 0
v -256 -64 0
v -256 -32 0
v -288 -64 0
v -288 -32 0
v -320 -64 0
v -320 -32 0
v -352 -64 0
v -352 -32 0
v -384 -64 0
v -384 -32 0
v -416 -64 0
v -416 -32 0
v -448 -64 0
v -448 -32 0
v -480 -64 0
v -480 -32 0
v -512 -64 0
v -512 -32 0
v -544 -64 0
v -544 -32 0
v -576 -64 0
v -576 -32 0
v -608 -64 0
v -608 -32 0
v -640 -64 0
v -640 -32 0
v -672 -64 0
v -672 -32 0
v -32 -96 0
v -64 -96 0
v -96 -96 0
v -128 -96 0
v -160 -96 0
v -192 -96 0
v -224 -96 0
v -256 -96 0
v -288 -96 0
v -320 -96 0
v -352 -96 0
v -384 -96 0
v -416 -96 0
v -448 -96 0
v -480 -96 0
v -512 -96 0
v -544 -96 0
v -576 -96 0
v -608 -96 0
v -640 -96 0
v -672 -96 0
v -32 -128 0
v -64 -128 0
v -96 -128 0
v -128 -128 0
v -160 -128 0
v -192 -128 0
v -224 -128 0
v -256 -128 0
v -288 -128 0
v -320 -128 0
v -352 -128 0
v -384 -128 0
v -416 -128 0
v -448 -128 0
v -480 -128 0
v -512 -128 0
v -544 -128 0
v -576 -128 0
v -608 -128 0
v -640 -128 0
v -672 -128 0
v -32 -160 0
v -64 -160 0
v -96 -160 0
v -128 -160 0
v -160 -160 0
v -192 -160 0
v -224 -160 0
v -256 -160 0
v -288 -160 0
v -320 -160 0
v -352 -160 0
v -384 -160 0
v -416 -160 0
v -448 -160 0
v -480 -160 0
v -512 -160 0
v -544 -160 0
v -576 -160 0
v -608 -160 0
v -640 -160 0
v -672 -160 0
v -32 -192 0
v -64 -192 0
v -96 -192 0
v -128 -192 0
v -160 -192 0
v -192 -192 0
v -224 -192 0
v -256 -192 0
v -288 -192 0
v -320 -192 0
v -352 -192 0
v -384 -192 0
v -416 -192 0
v -448 -192 0
v -480 -192 0
v -512 -192 0
v -544 -192 0
v -576 -192 0
v -608 -192 0
v -640 -192 0
v -672 -192 0
v -32 -224 0
v -64 -224 0
v -96 -224 0
v -128 -224 0
v -160 -224 0
v -192 -224 0
v -224 -224 0
v -256 -224 0
v -288 -224 0
v -320 -224 0
v -352 -224 0
v -384 -224 0
v -416 -224 0
v -448 -224 0
v -480 -224 0
v -512 -224 0
v -544 -224 0
v -576 -224 0
v -608 -224 0
v -640 -224 0
v -672 -224 0
v -32 -256 0
v -64 -256 0
v -96 -256 0
v -128 -256 0
v -160 -256 0
v -192 -256 0
v -224 -256 0
v -256 -256 0
v -288 -256 0
v -320 -256 0
v -352 -256 0
v -384 -256 0
v -416 -256 0
v -448 -256 0
v -480 -256 0
v -512 -256 0
v -544 -256 0
v -576 -256 0
v -608 -256 0
v -640 -256 0
v -672 -256 0
v -32 -288 0
v -64 -288 0
v -96 -288 0
v -128 -288 0
v -160 -288 0
v -192 -288 0
v -224 -288 0
v -256 -288 0
v -288 -288 0
v -320 -288 0
v -352 -288 0
v -384 -288 0
v -416 -288 0
v -448 -288 0
v -480 -288 0
v -512 -288 0
v -544 -288 0
v -576 -288 0
v -608 -288 0
v -640 -288 0
v -672 -288 0
v -32 -320 0
v -64 -320 0
v -96 -320 0
v -128 -320 0
v -160 -320 0
v -192 -320 0
v -224 -320 0
v -256 -320 0
v -288 -320 0
v -320 -320 0
v -352 -320 0
v -384 -320 0
v -416 -320 0
v -448 -320 0
v -480 -320 0
v -512 -320 0
v -544 -320 0
v -576 -320 0
v -608 -320 0
v -640 -320 0
v -672 -320 0
v -32 -352 0
v -64 -352 0
v -96 -352 0
v -128 -352 0
v -160 -352 0
v -192 -352 0
v -224 -352 0
v -256 -352 0
v -288 -352 0
v -320 -352 0
v -352 -352 0
v -384 -352 0
v -416 -352 0
v -448 -352 0
v -480 -352 0
v -512 -352 0
v -544 -352 0
v -576 -352 0
v -608 -352 0
v -640 -352 0
v -672 -352 0
v -32 -384 0
v -64 -384 0
v -96 -384 0
v -128 -384 0
v -160 -384 0
v -192 -384 0
v -224 -384 0
v -256 -384 0
v -288 -384 0
v -320 -384 0
v -352 -384 0
v -384 -384 0
v -416 -384 0
v -448 -384 0
v -480 -384 0
v -512 -384 0
v -544 -384 0
v -576 -384 0
v -608 -384 0
v -640 -384 0
v -672 -384 0
v -32 -416 0
v -64 -416 0
v -96 -416 0
v -128 -416 0
v -160 -416 0
v -192 -416 0
v -224 -416 0
v -256 -416 0
v -288 -416 0
v -320 -416 0
v -352 -416 0
v -384 -416 0
v -416 -416 0
v -448 -416 0
v -480 -416 0
v -512 -416 0
v -544 -416 0
v -576 -416 0
v -608 -416 0
v -640 -416 0
v -672 -416 0
v -32 -448 0
v -64 -448 0
v -96 -448 0
v -128 -448 0
v -160 -448 0
v -192 -448 0
v -224 -448 0
v -256 -448 0
v -288 -448 0
v -320 -448 0
v -352 -448 0
v -384 -448 0
v -416 -448 0
v -448 -448 0
v -480 -448 0
v -512 -448 0
v -544 -448 0
v -576 -448 0
v -608 -448 0
v -640 -448 0
v -672 -448 0
v -32 -480 0
v -64 -480 0
v -96 -480 0
v -128 -480 0
v -160 -480 0
v -192 -480 0
v -224 -480 0
v -256 -480 0
v -288 -480 0
v -320 -480 0
v -352 -480 0
v -384 -480 0
v -416 -480 0
v -448 -480 0
v -480 -480 0
v -512 -480 0
v -544 -480 0
v -576 -480 0
v -608 -480 0
v -640 -480 0
v -672 -480 0

# Texture cooridinates (Count = 104)
vt 0.06262207 0.7501221
vt 0.1248779 0.7501221
vt 0.1248779 0.8748779
vt 0.06262207 0.8748779
vt 0.0001220703 0.5001221
vt 0.06237793 0.5001221
vt 0.06237793 0.6248779
vt 0.0001220703 0.6248779
vt 0.06262207 0.6251221
vt 0.1248779 0.6251221
vt 0.1248779 0.7498779
vt 0.06262207 0.7498779
vt 0.06262207 0.5001221
vt 0.1248779 0.5001221
vt 0.1248779 0.6248779
vt 0.06262207 0.6248779
vt 0.1251221 0.6251221
vt 0.1873779 0.6251221
vt 0.1873779 0.7498779
vt 0.1251221 0.7498779
vt 0.2501221 0.8751221
vt 0.3123779 0.8751221
vt 0.3123779 0.9998779
vt 0.2501221 0.9998779
vt 0.1876221 0.8751221
vt 0.2498779 0.8751221
vt 0.2498779 0.9998779
vt 0.1876221 0.9998779
vt 0.0001220703 0.6251221
vt 0.06237793 0.6251221
vt 0.06237793 0.7498779
vt 0.0001220703 0.7498779
vt 0.3126221 0.7501221
vt 0.3748779 0.7501221
vt 0.3748779 0.8748779
vt 0.3126221 0.8748779
vt 0.1876221 0.7501221
vt 0.2498779 0.7501221
vt 0.2498779 0.8748779
vt 0.1876221 0.8748779
vt 0.2501221 0.7501221
vt 0.3123779 0.7501221
vt 0.3123779 0.8748779
vt 0.2501221 0.8748779
vt 0.3126221 0.8751221
vt 0.3748779 0.8751221
vt 0.3748779 0.9998779
vt 0.3126221 0.9998779
vt 0.1876221 0.6251221
vt 0.2498779 0.6251221
vt 0.2498779 0.7498779
vt 0.1876221 0.7498779
vt 0.2501221 0.6251221
vt 0.3123779 0.6251221
vt 0.3123779 0.7498779
vt 0.2501221 0.7498779
vt 0.3126221 0.6251221
vt 0.3748779 0.6251221
vt 0.3748779 0.7498779
vt 0.3126221 0.7498779
vt 0.06262207 0.8751221
vt 0.1248779 0.8751221
vt 0.1248779 0.9998779
vt 0.06262207 0.9998779
vt 0.1251221 0.8751221
vt 0.1873779 0.8751221
vt 0.1873779 0.9998779
vt 0.1251221 0.9998779
vt 0.0001220703 0.8751221
vt 0.06237793 0.8751221
vt 0.06237793 0.9998779
vt 0.0001220703 0.9998779
vt 0.1251221 0.7501221
vt 0.1873779 0.7501221
vt 0.1873779 0.8748779
vt 0.1251221 0.8748779
vt 0.0001220703 0.7501221
vt 0.06237793 0.7501221
vt 0.06237793 0.8748779
vt 0.0001220703 0.8748779
vt 0.06262207 0.3751221
vt 0.1248779 0.3751221
vt 0.1248779 0.4998779
vt 0.06262207 0.4998779
vt 0.0001220703 0.3751221
vt 0.06237793 0.3751221
vt 0.06237793 0.4998779
vt 0.0001220703 0.4998779
vt 0.0001220703 0.2501221
vt 0.06237793 0.2501221
vt 0.06237793 0.3748779
vt 0.0001220703 0.3748779
vt 0.1251221 0.2501221
vt 0.1873779 0.2501221
vt 0.1873779 0.3748779
vt 0.1251221 0.3748779
vt 0.1876221 0.2501221
vt 0.2498779 0.2501221
vt 0.2498779 0.3748779
vt 0.1876221 0.3748779
vt 0.2501221 0.2501221
vt 0.3123779 0.2501221
vt 0.3123779 0.3748779
vt 0.2501221 0.3748779

# Normal
vn 0 0 -1

# Groups (Count = 2)

g mesh_0001
f 1/1/1 2/2/1 3/3/1 4/4/1
f 2/1/1 5/2/1 6/3/1 3/4/1
f 5/1/1 7/2/1 8/3/1 6/4/1
f 7/1/1 9/2/1 10/3/1 8/4/1
f 9/1/1 11/2/1 12/3/1 10/4/1
f 11/1/1 13/2/1 14/3/1 12/4/1
f 13/1/1 15/2/1 16/3/1 14/4/1
f 15/1/1 17/2/1 18/3/1 16/4/1
f 17/1/1 19/2/1 20/3/1 18/4/1
f 19/1/1 21/2/1 22/3/1 20/4/1
f 21/1/1 23/2/1 24/3/1 22/4/1
f 23/1/1 25/2/1 26/3/1 24/4/1
f 25/1/1 27/2/1 28/3/1 26/4/1
f 27/1/1 29/2/1 30/3/1 28/4/1
f 29/1/1 31/2/1 32/3/1 30/4/1
f 31/1/1 33/2/1 34/3/1 32/4/1
f 33/1/1 35/2/1 36/3/1 34/4/1
f 35/1/1 37/2/1 38/3/1 36/4/1
f 37/1/1 39/2/1 40/3/1 38/4/1
f 39/1/1 41/2/1 42/3/1 40/4/1
f 43/1/1 44/2/1 2/3/1 1/4/1
f 44/1/1 45/2/1 5/3/1 2/4/1
f 45/1/1 46/2/1 7/3/1 5/4/1
f 46/1/1 47/2/1 9/3/1 7/4/1
f 47/1/1 48/2/1 11/3/1 9/4/1
f 48/1/1 49/2/1 13/3/1 11/4/1
f 49/1/1 50/2/1 15/3/1 13/4/1
f 50/5/1 51/6/1 17/7/1 15/8/1
f 51/9/1 52/10/1 19/11/1 17/12/1
f 52/9/1 53/10/1 21/11/1 19/12/1
f 53/9/1 54/10/1 23/11/1 21/12/1
f 54/9/1 55/10/1 25/11/1 23/12/1
f 55/9/1 56/10/1 27/11/1 25/12/1
f 56/13/1 57/14/1 29/15/1 27/16/1
f 57/1/1 58/2/1 31/3/1 29/4/1
f 58/1/1 59/2/1 33/3/1 31/4/1
f 59/1/1 60/2/1 35/3/1 33/4/1
f 60/1/1 61/2/1 37/3/1 35/4/1
f 61/1/1 62/2/1 39/3/1 37/4/1
f 62/1/1 63/2/1 41/3/1 39/4/1
f 64/1/1 65/2/1 44/3/1 43/4/1
f 65/1/1 66/2/1 45/3/1 44/4/1
f 66/1/1 67/2/1 46/3/1 45/4/1
f 67/1/1 68/2/1 47/3/1 46/4/1
f 68/1/1 69/2/1 48/3/1 47/4/1
f 69/5/1 70/6/1 49/7/1 48/8/1
f 70/9/1 71/10/1 50/11/1 49/12/1
f 71/17/1 72/18/1 51/19/1 50/20/1
f 72/21/1 73/22/1 52/23/1 51/24/1
f 73/25/1 74/26/1 53/27/1 52/28/1
f 74/21/1 75/22/1 54/23/1 53/24/1
f 75/25/1 76/26/1 55/27/1 54/28/1
f 76/21/1 77/22/1 56/23/1 55/24/1
f 77/29/1 78/30/1 57/31/1 56/32/1
f 78/13/1 79/14/1 58/15/1 57/16/1
f 79/1/1 80/2/1 59/3/1 58/4/1
f 80/1/1 81/2/1 60/3/1 59/4/1
f 81/1/1 82/2/1 61/3/1 60/4/1
f 82/1/1 83/2/1 62/3/1 61/4/1
f 83/1/1 84/2/1 63/3/1 62/4/1
f 85/1/1 86/2/1 65/3/1 64/4/1
f 86/5/1 87/6/1 66/7/1 65/8/1
f 87/9/1 88/10/1 67/11/1 66/12/1
f 88/9/1 89/10/1 68/11/1 67/12/1
f 89/9/1 90/10/1 69/11/1 68/12/1
f 90/17/1 91/18/1 70/19/1 69/20/1
f 91/33/1 92/34/1 71/35/1 70/36/1
f 92/37/1 93/38/1 72/39/1 71/40/1
f 93/41/1 94/42/1 73/43/1 72/44/1
f 94/37/1 95/38/1 74/39/1 73/40/1
f 95/41/1 96/42/1 75/43/1 74/44/1
f 96/37/1 97/38/1 76/39/1 75/40/1
f 97/41/1 98/42/1 77/43/1 76/44/1
f 98/37/1 99/38/1 78/39/1 77/40/1
f 99/29/1 100/30/1 79/31/1 78/32/1
f 100/9/1 101/10/1 80/11/1 79/12/1
f 101/9/1 102/10/1 81/11/1 80/12/1
f 102/9/1 103/10/1 82/11/1 81/12/1
f 103/13/1 104/14/1 83/15/1 82/16/1
f 104/1/1 105/2/1 84/3/1 83/4/1
f 106/9/1 107/10/1 86/11/1 85/12/1
f 107/17/1 108/18/1 87/19/1 86/20/1
f 108/25/1 109/26/1 88/27/1 87/28/1
f 109/21/1 110/22/1 89/23/1 88/24/1
f 110/45/1 111/46/1 90/47/1 89/48/1
f 111/25/1 112/26/1 91/27/1 90/28/1
f 112/21/1 113/22/1 92/23/1 91/24/1
f 113/45/1 114/46/1 93/47/1 92/48/1
f 114/25/1 115/26/1 94/27/1 93/28/1
f 115/21/1 116/22/1 95/23/1 94/24/1
f 116/45/1 117/46/1 96/47/1 95/48/1
f 117/25/1 118/26/1 97/27/1 96/28/1
f 118/21/1 119/22/1 98/23/1 97/24/1
f 119/45/1 120/46/1 99/47/1 98/48/1
f 120/25/1 121/26/1 100/27/1 99/28/1
f 121/25/1 122/26/1 101/27/1 100/28/1
f 122/21/1 123/22/1 102/23/1 101/24/1
f 123/45/1 124/46/1 103/47/1 102/48/1
f 124/29/1 125/30/1 104/31/1 103/32/1
f 125/9/1 126/10/1 105/11/1 104/12/1
f 127/33/1 128/34/1 107/35/1 106/36/1
f 128/33/1 129/34/1 108/35/1 107/36/1
f 129/49/1 130/50/1 109/51/1 108/52/1
f 130/53/1 131/54/1 110/55/1 109/56/1
f 131/49/1 132/50/1 111/51/1 110/52/1
f 132/53/1 133/54/1 112/55/1 111/56/1
f 133/57/1 134/58/1 113/59/1 112/60/1
f 134/49/1 135/50/1 114/51/1 113/52/1
f 135/53/1 136/54/1 115/55/1 114/56/1
f 136/49/1 137/50/1 116/51/1 115/52/1
f 137/53/1 138/54/1 117/55/1 116/56/1
f 138/49/1 139/50/1 118/51/1 117/52/1
f 139/53/1 140/54/1 119/55/1 118/56/1
f 140/49/1 141/50/1 120/51/1 119/52/1
f 141/53/1 142/54/1 121/55/1 120/56/1
f 142/49/1 143/50/1 122/51/1 121/52/1
f 143/53/1 144/54/1 123/55/1 122/56/1
f 144/57/1 145/58/1 124/59/1 123/60/1
f 145/53/1 146/54/1 125/55/1 124/56/1
f 146/33/1 147/34/1 126/35/1 125/36/1
f 148/33/1 149/34/1 128/35/1 127/36/1
f 149/25/1 150/26/1 129/27/1 128/28/1
f 150/21/1 151/22/1 130/23/1 129/24/1
f 151/45/1 152/46/1 131/47/1 130/48/1
f 152/25/1 153/26/1 132/27/1 131/28/1
f 153/21/1 154/22/1 133/23/1 132/24/1
f 154/45/1 155/46/1 134/47/1 133/48/1
f 155/25/1 156/26/1 135/27/1 134/28/1
f 156/21/1 157/22/1 136/23/1 135/24/1
f 157/45/1 158/46/1 137/47/1 136/48/1
f 158/25/1 159/26/1 138/27/1 137/28/1
f 159/21/1 160/22/1 139/23/1 138/24/1
f 160/45/1 161/46/1 140/47/1 139/48/1
f 161/25/1 162/26/1 141/27/1 140/28/1
f 162/21/1 163/22/1 142/23/1 141/24/1
f 163/45/1 164/46/1 143/47/1 142/48/1
f 164/25/1 165/26/1 144/27/1 143/28/1
f 165/21/1 166/22/1 145/23/1 144/24/1
f 166/45/1 167/46/1 146/47/1 145/48/1
f 167/33/1 168/34/1 147/35/1 146/36/1
f 169/33/1 170/34/1 149/35/1 148/36/1
f 170/37/1 171/38/1 150/39/1 149/40/1
f 171/41/1 172/42/1 151/43/1 150/44/1
f 172/33/1 173/34/1 152/35/1 151/36/1
f 173/37/1 174/38/1 153/39/1 152/40/1
f 174/41/1 175/42/1 154/43/1 153/44/1
f 175/33/1 176/34/1 155/35/1 154/36/1
f 176/37/1 177/38/1 156/39/1 155/40/1
f 177/41/1 178/42/1 157/43/1 156/44/1
f 178/33/1 179/34/1 158/35/1 157/36/1
f 179/37/1 180/38/1 159/39/1 158/40/1
f 180/41/1 181/42/1 160/43/1 159/44/1
f 181/33/1 182/34/1 161/35/1 160/36/1
f 182/37/1 183/38/1 162/39/1 161/40/1
f 183/41/1 184/42/1 163/43/1 162/44/1
f 184/33/1 185/34/1 164/35/1 163/36/1
f 185/37/1 186/38/1 165/39/1 164/40/1
f 186/41/1 187/42/1 166/43/1 165/44/1
f 187/33/1 188/34/1 167/35/1 166/36/1
f 188/33/1 189/34/1 168/35/1 167/36/1
f 190/33/1 191/34/1 170/35/1 169/36/1
f 191/49/1 192/50/1 171/51/1 170/52/1
f 192/53/1 193/54/1 172/55/1 171/56/1
f 193/57/1 194/58/1 173/59/1 172/60/1
f 194/49/1 195/50/1 174/51/1 173/52/1
f 195/53/1 196/54/1 175/55/1 174/56/1
f 196/57/1 197/58/1 176/59/1 175/60/1
f 197/49/1 198/50/1 177/51/1 176/52/1
f 198/53/1 199/54/1 178/55/1 177/56/1
f 199/57/1 200/58/1 179/59/1 178/60/1
f 200/49/1 201/50/1 180/51/1 179/52/1
f 201/53/1 202/54/1 181/55/1 180/56/1
f 202/57/1 203/58/1 182/59/1 181/60/1
f 203/49/1 204/50/1 183/51/1 182/52/1
f 204/53/1 205/54/1 184/55/1 183/56/1
f 205/57/1 206/58/1 185/59/1 184/60/1
f 206/49/1 207/50/1 186/51/1 185/52/1
f 207/53/1 208/54/1 187/55/1 186/56/1
f 208/57/1 209/58/1 188/59/1 187/60/1
f 209/33/1 210/34/1 189/35/1 188/36/1
f 211/61/1 212/62/1 191/63/1 190/64/1
f 212/65/1 213/66/1 192/67/1 191/68/1
f 213/21/1 214/22/1 193/23/1 192/24/1
f 214/45/1 215/46/1 194/47/1 193/48/1
f 215/25/1 216/26/1 195/27/1 194/28/1
f 216/21/1 217/22/1 196/23/1 195/24/1
f 217/45/1 218/46/1 197/47/1 196/48/1
f 218/25/1 219/26/1 198/27/1 197/28/1
f 219/21/1 220/22/1 199/23/1 198/24/1
f 220/45/1 221/46/1 200/47/1 199/48/1
f 221/25/1 222/26/1 201/27/1 200/28/1
f 222/21/1 223/22/1 202/23/1 201/24/1
f 223/45/1 224/46/1 203/47/1 202/48/1
f 224/45/1 225/46/1 204/47/1 203/48/1
f 225/21/1 226/22/1 205/23/1 204/24/1
f 226/45/1 227/46/1 206/47/1 205/48/1
f 227/25/1 228/26/1 207/27/1 206/28/1
f 228/21/1 229/22/1 208/23/1 207/24/1
f 229/69/1 230/70/1 209/71/1 208/72/1
f 230/61/1 231/62/1 210/63/1 209/64/1
f 232/1/1 233/2/1 212/3/1 211/4/1
f 233/73/1 234/74/1 213/75/1 212/76/1
f 234/25/1 235/26/1 214/27/1 213/28/1
f 235/21/1 236/22/1 215/23/1 214/24/1
f 236/45/1 237/46/1 216/47/1 215/48/1
f 237/45/1 238/46/1 217/47/1 216/48/1
f 238/25/1 239/26/1 218/27/1 217/28/1
f 239/21/1 240/22/1 219/23/1 218/24/1
f 240/69/1 241/70/1 220/71/1 219/72/1
f 241/61/1 242/62/1 221/63/1 220/64/1
f 242/61/1 243/62/1 222/63/1 221/64/1
f 243/65/1 244/66/1 223/67/1 222/68/1
f 244/25/1 245/26/1 224/27/1 223/28/1
f 245/21/1 246/22/1 225/23/1 224/24/1
f 246/45/1 247/46/1 226/47/1 225/48/1
f 247/25/1 248/26/1 227/27/1 226/28/1
f 248/21/1 249/22/1 228/23/1 227/24/1
f 249/45/1 250/46/1 229/47/1 228/48/1
f 250/77/1 251/78/1 230/79/1 229/80/1
f 251/1/1 252/2/1 231/3/1 230/4/1
f 253/1/1 254/2/1 233/3/1 232/4/1
f 254/73/1 255/74/1 234/75/1 233/76/1
f 255/37/1 256/38/1 235/39/1 234/40/1
f 256/41/1 257/42/1 236/43/1 235/44/1
f 257/33/1 258/34/1 237/35/1 236/36/1
f 258/33/1 259/34/1 238/35/1 237/36/1
f 259/37/1 260/38/1 239/39/1 238/40/1
f 260/69/1 261/70/1 240/71/1 239/72/1
f 261/81/1 262/82/1 241/83/1 240/84/1
f 262/1/1 263/2/1 242/3/1 241/4/1
f 263/1/1 264/2/1 243/3/1 242/4/1
f 264/85/1 265/86/1 244/87/1 243/88/1
f 265/65/1 266/66/1 245/67/1 244/68/1
f 266/41/1 267/42/1 246/43/1 245/44/1
f 267/33/1 268/34/1 247/35/1 246/36/1
f 268/37/1 269/38/1 248/39/1 247/40/1
f 269/41/1 270/42/1 249/43/1 248/44/1
f 270/33/1 271/34/1 250/35/1 249/36/1
f 271/77/1 272/78/1 251/79/1 250/80/1
f 272/1/1 273/2/1 252/3/1 251/4/1
f 274/1/1 275/2/1 254/3/1 253/4/1
f 275/85/1 276/86/1 255/87/1 254/88/1
f 276/61/1 277/62/1 256/63/1 255/64/1
f 277/61/1 278/62/1 257/63/1 256/64/1
f 278/61/1 279/62/1 258/63/1 257/64/1
f 279/61/1 280/62/1 259/63/1 258/64/1
f 280/61/1 281/62/1 260/63/1 259/64/1
f 281/81/1 282/82/1 261/83/1 260/84/1
f 282/1/1 283/2/1 262/3/1 261/4/1
f 283/1/1 284/2/1 263/3/1 262/4/1
f 284/1/1 285/2/1 264/3/1 263/4/1
f 285/1/1 286/2/1 265/3/1 264/4/1
f 286/85/1 287/86/1 266/87/1 265/88/1
f 287/61/1 288/62/1 267/63/1 266/64/1
f 288/61/1 289/62/1 268/63/1 267/64/1
f 289/61/1 290/62/1 269/63/1 268/64/1
f 290/61/1 291/62/1 270/63/1 269/64/1
f 291/61/1 292/62/1 271/63/1 270/64/1
f 292/81/1 293/82/1 272/83/1 271/84/1
f 293/1/1 294/2/1 273/3/1 272/4/1
f 295/1/1 296/2/1 275/3/1 274/4/1
f 296/1/1 297/2/1 276/3/1 275/4/1
f 297/1/1 298/2/1 277/3/1 276/4/1
f 298/1/1 299/2/1 278/3/1 277/4/1
f 299/1/1 300/2/1 279/3/1 278/4/1
f 300/1/1 301/2/1 280/3/1 279/4/1
f 301/1/1 302/2/1 281/3/1 280/4/1
f 302/1/1 303/2/1 282/3/1 281/4/1
f 303/1/1 304/2/1 283/3/1 282/4/1
f 304/1/1 305/2/1 284/3/1 283/4/1
f 305/1/1 306/2/1 285/3/1 284/4/1
f 306/1/1 307/2/1 286/3/1 285/4/1
f 307/1/1 308/2/1 287/3/1 286/4/1
f 308/1/1 309/2/1 288/3/1 287/4/1
f 309/1/1 310/2/1 289/3/1 288/4/1
f 310/1/1 311/2/1 290/3/1 289/4/1
f 311/1/1 312/2/1 291/3/1 290/4/1
f 312/1/1 313/2/1 292/3/1 291/4/1
f 313/1/1 314/2/1 293/3/1 292/4/1
f 314/1/1 315/2/1 294/3/1 293/4/1

g mesh_0002
f 1/89/1 2/90/1 3/91/1 4/92/1
f 2/89/1 5/90/1 6/91/1 3/92/1
f 5/89/1 7/90/1 8/91/1 6/92/1
f 7/89/1 9/90/1 10/91/1 8/92/1
f 9/89/1 11/90/1 12/91/1 10/92/1
f 11/89/1 13/90/1 14/91/1 12/92/1
f 13/89/1 15/90/1 16/91/1 14/92/1
f 15/89/1 17/90/1 18/91/1 16/92/1
f 17/89/1 19/90/1 20/91/1 18/92/1
f 19/89/1 21/90/1 22/91/1 20/92/1
f 21/89/1 23/90/1 24/91/1 22/92/1
f 23/89/1 25/90/1 26/91/1 24/92/1
f 25/89/1 27/90/1 28/91/1 26/92/1
f 27/89/1 29/90/1 30/91/1 28/92/1
f 29/89/1 31/90/1 32/91/1 30/92/1
f 31/89/1 33/90/1 34/91/1 32/92/1
f 33/89/1 35/90/1 36/91/1 34/92/1
f 35/89/1 37/90/1 38/91/1 36/92/1
f 37/89/1 39/90/1 40/91/1 38/92/1
f 39/89/1 41/90/1 42/91/1 40/92/1
f 43/89/1 44/90/1 2/91/1 1/92/1
f 44/89/1 45/90/1 5/91/1 2/92/1
f 45/89/1 46/90/1 7/91/1 5/92/1
f 46/89/1 47/90/1 9/91/1 7/92/1
f 47/89/1 48/90/1 11/91/1 9/92/1
f 48/89/1 49/90/1 13/91/1 11/92/1
f 49/89/1 50/90/1 15/91/1 13/92/1
f 57/89/1 58/90/1 31/91/1 29/92/1
f 58/89/1 59/90/1 33/91/1 31/92/1
f 59/89/1 60/90/1 35/91/1 33/92/1
f 60/89/1 61/90/1 37/91/1 35/92/1
f 61/89/1 62/90/1 39/91/1 37/92/1
f 62/89/1 63/90/1 41/91/1 39/92/1
f 64/89/1 65/90/1 44/91/1 43/92/1
f 65/89/1 66/90/1 45/91/1 44/92/1
f 66/93/1 67/94/1 46/95/1 45/96/1
f 67/93/1 68/94/1 47/95/1 46/96/1
f 79/89/1 80/90/1 59/91/1 58/92/1
f 80/89/1 81/90/1 60/91/1 59/92/1
f 81/89/1 82/90/1 61/91/1 60/92/1
f 82/89/1 83/90/1 62/91/1 61/92/1
f 83/89/1 84/90/1 63/91/1 62/92/1
f 85/89/1 86/90/1 65/91/1 64/92/1
f 86/89/1 87/90/1 66/91/1 65/92/1
f 104/89/1 105/90/1 84/91/1 83/92/1
f 116/97/1 117/98/1 96/99/1 95/100/1
f 155/101/1 156/102/1 135/103/1 134/104/1
f 160/101/1 161/102/1 140/103/1 139/104/1
f 199/97/1 200/98/1 179/99/1 178/100/1
f 232/89/1 233/90/1 212/91/1 211/92/1
f 251/89/1 252/90/1 231/91/1 230/92/1
f 253/89/1 254/90/1 233/91/1 232/92/1
f 262/89/1 263/90/1 242/91/1 241/92/1
f 263/89/1 264/90/1 243/91/1 242/92/1
f 272/89/1 273/90/1 252/91/1 251/92/1
f 274/89/1 275/90/1 254/91/1 253/92/1
f 282/89/1 283/90/1 262/91/1 261/92/1
f 283/89/1 284/90/1 263/91/1 262/92/1
f 284/89/1 285/90/1 264/91/1 263/92/1
f 285/89/1 286/90/1 265/91/1 264/92/1
f 293/89/1 294/90/1 273/91/1 272/92/1
f 295/89/1 296/90/1 275/91/1 274/92/1
f 296/89/1 297/90/1 276/91/1 275/92/1
f 297/89/1 298/90/1 277/91/1 276/92/1
f 298/89/1 299/90/1 278/91/1 277/92/1
f 299/89/1 300/90/1 279/91/1 278/92/1
f 300/89/1 301/90/1 280/91/1 279/92/1
f 301/89/1 302/90/1 281/91/1 280/92/1
f 302/89/1 303/90/1 282/91/1 281/92/1
f 303/89/1 304/90/1 283/91/1 282/92/1
f 304/89/1 305/90/1 284/91/1 283/92/1
f 305/89/1 306/90/1 285/91/1 284/92/1
f 306/89/1 307/90/1 286/91/1 285/92/1
f 307/89/1 308/90/1 287/91/1 286/92/1
f 308/89/1 309/90/1 288/91/1 287/92/1
f 309/89/1 310/90/1 289/91/1 288/92/1
f 310/89/1 311/90/1 290/91/1 289/92/1
f 311/89/1 312/90/1 291/91/1 290/92/1
f 312/89/1 313/90/1 292/91/1 291/92/1
f 313/89/1 314/90/1 293/91/1 292/92/1
f 314/89/1 315/90/1 294/91/1 293/92/1

